<?xml version="1.0" encoding="UTF-8" standalone="no"?><svg xmlns="http://www.w3.org/2000/svg" xmlns:xlink="http://www.w3.org/1999/xlink" contentScriptType="application/ecmascript" contentStyleType="text/css" height="1056.25px" preserveAspectRatio="none" style="width:1047px;height:1056px;" version="1.1" viewBox="0 0 1047 1056" width="1047.5px" zoomAndPan="magnify"><defs><filter height="300%" id="fr0uc7er84of2" width="300%" x="-1" y="-1"><feGaussianBlur result="blurOut" stdDeviation="2.5"/><feColorMatrix in="blurOut" result="blurOut2" type="matrix" values="0 0 0 0 0 0 0 0 0 0 0 0 0 0 0 0 0 0 .4 0"/><feOffset dx="5.0" dy="5.0" in="blurOut2" result="blurOut3"/><feBlend in="SourceGraphic" in2="blurOut3" mode="normal"/></filter></defs><g><text fill="#000000" font-family="sans-serif" font-size="22.5" lengthAdjust="spacingAndGlyphs" textLength="296.25" x="367.8125" y="20.885">Vasille.js core architecture</text><!--MD5=[dd3d8ac4471df18ad4763acf3eb8d507]
class Destroyable--><rect fill="#FEFECE" filter="url(#fr0uc7er84of2)" height="60" id="Destroyable" style="stroke:#A80036;stroke-width:1.875;" width="128.75" x="391.875" y="34.9414"/><ellipse cx="410.625" cy="54.9414" fill="#ADD1B2" rx="13.75" ry="13.75" style="stroke:#A80036;stroke-width:1.25;"/><path d="M414.3945,59.5313 L414.3945,62.0313 Q412.5391,62.7539 410.2539,62.7539 Q406.8555,62.7539 405.0391,60.6641 Q403.2227,58.5742 403.2227,54.8047 Q403.2227,51.1719 405.1953,49.043 Q407.168,46.8945 410.5664,46.8945 Q412.9492,46.8945 415.1367,48.0273 L413.9258,50.332 Q412.0508,49.4141 410.5664,49.4141 Q408.5352,49.4141 407.3242,50.8594 Q406.1133,52.2852 406.1133,54.8242 Q406.1133,57.5391 407.2461,58.9063 Q408.3789,60.2539 410.5664,60.2539 Q411.8555,60.2539 414.3945,59.5313 Z " fill="#000000"/><text fill="#000000" font-family="sans-serif" font-size="15" lengthAdjust="spacingAndGlyphs" textLength="88.75" x="428.125" y="60.1343">Destroyable</text><line style="stroke:#A80036;stroke-width:1.875;" x1="393.125" x2="519.375" y1="74.9414" y2="74.9414"/><line style="stroke:#A80036;stroke-width:1.875;" x1="393.125" x2="519.375" y1="84.9414" y2="84.9414"/><!--MD5=[5ca0a8037b474e226ac56906b1aa41d0]
class IValue--><rect fill="#FEFECE" filter="url(#fr0uc7er84of2)" height="60" id="IValue" style="stroke:#A80036;stroke-width:1.875;" width="86.25" x="358.125" y="169.9414"/><ellipse cx="376.875" cy="189.9414" fill="#ADD1B2" rx="13.75" ry="13.75" style="stroke:#A80036;stroke-width:1.25;"/><path d="M380.6445,194.5313 L380.6445,197.0313 Q378.7891,197.7539 376.5039,197.7539 Q373.1055,197.7539 371.2891,195.6641 Q369.4727,193.5742 369.4727,189.8047 Q369.4727,186.1719 371.4453,184.043 Q373.418,181.8945 376.8164,181.8945 Q379.1992,181.8945 381.3867,183.0273 L380.1758,185.332 Q378.3008,184.4141 376.8164,184.4141 Q374.7852,184.4141 373.5742,185.8594 Q372.3633,187.2852 372.3633,189.8242 Q372.3633,192.5391 373.4961,193.9063 Q374.6289,195.2539 376.8164,195.2539 Q378.1055,195.2539 380.6445,194.5313 Z " fill="#000000"/><text fill="#000000" font-family="sans-serif" font-size="15" lengthAdjust="spacingAndGlyphs" textLength="46.25" x="394.375" y="195.1343">IValue</text><line style="stroke:#A80036;stroke-width:1.875;" x1="359.375" x2="443.125" y1="209.9414" y2="209.9414"/><line style="stroke:#A80036;stroke-width:1.875;" x1="359.375" x2="443.125" y1="219.9414" y2="219.9414"/><!--MD5=[6ea948b545d260b2accf0b240a6da873]
class VasilleNode--><rect fill="#FEFECE" filter="url(#fr0uc7er84of2)" height="60" id="VasilleNode" style="stroke:#A80036;stroke-width:1.875;" width="125" x="668.75" y="304.9414"/><ellipse cx="687.5" cy="324.9414" fill="#ADD1B2" rx="13.75" ry="13.75" style="stroke:#A80036;stroke-width:1.25;"/><path d="M691.2695,329.5313 L691.2695,332.0313 Q689.4141,332.7539 687.1289,332.7539 Q683.7305,332.7539 681.9141,330.6641 Q680.0977,328.5742 680.0977,324.8047 Q680.0977,321.1719 682.0703,319.043 Q684.043,316.8945 687.4414,316.8945 Q689.8242,316.8945 692.0117,318.0273 L690.8008,320.332 Q688.9258,319.4141 687.4414,319.4141 Q685.4102,319.4141 684.1992,320.8594 Q682.9883,322.2852 682.9883,324.8242 Q682.9883,327.5391 684.1211,328.9063 Q685.2539,330.2539 687.4414,330.2539 Q688.7305,330.2539 691.2695,329.5313 Z " fill="#000000"/><text fill="#000000" font-family="sans-serif" font-size="15" lengthAdjust="spacingAndGlyphs" textLength="85" x="705" y="330.1343">VasilleNode</text><line style="stroke:#A80036;stroke-width:1.875;" x1="670" x2="792.5" y1="344.9414" y2="344.9414"/><line style="stroke:#A80036;stroke-width:1.875;" x1="670" x2="792.5" y1="354.9414" y2="354.9414"/><!--MD5=[3a7cf800944e5f3d9e9c59d889c61f3b]
class Reference--><rect fill="#FEFECE" filter="url(#fr0uc7er84of2)" height="60" id="Reference" style="stroke:#A80036;stroke-width:1.875;" width="115" x="83.75" y="304.9414"/><ellipse cx="102.5" cy="324.9414" fill="#ADD1B2" rx="13.75" ry="13.75" style="stroke:#A80036;stroke-width:1.25;"/><path d="M106.2695,329.5313 L106.2695,332.0313 Q104.4141,332.7539 102.1289,332.7539 Q98.7305,332.7539 96.9141,330.6641 Q95.0977,328.5742 95.0977,324.8047 Q95.0977,321.1719 97.0703,319.043 Q99.043,316.8945 102.4414,316.8945 Q104.8242,316.8945 107.0117,318.0273 L105.8008,320.332 Q103.9258,319.4141 102.4414,319.4141 Q100.4102,319.4141 99.1992,320.8594 Q97.9883,322.2852 97.9883,324.8242 Q97.9883,327.5391 99.1211,328.9063 Q100.2539,330.2539 102.4414,330.2539 Q103.7305,330.2539 106.2695,329.5313 Z " fill="#000000"/><text fill="#000000" font-family="sans-serif" font-size="15" lengthAdjust="spacingAndGlyphs" textLength="75" x="120" y="330.1343">Reference</text><line style="stroke:#A80036;stroke-width:1.875;" x1="85" x2="197.5" y1="344.9414" y2="344.9414"/><line style="stroke:#A80036;stroke-width:1.875;" x1="85" x2="197.5" y1="354.9414" y2="354.9414"/><!--MD5=[af875161895cb5f0a2b02f995e6162c6]
class Pointer--><rect fill="#FEFECE" filter="url(#fr0uc7er84of2)" height="60" id="Pointer" style="stroke:#A80036;stroke-width:1.875;" width="92.5" x="242.5" y="304.9414"/><ellipse cx="261.25" cy="324.9414" fill="#ADD1B2" rx="13.75" ry="13.75" style="stroke:#A80036;stroke-width:1.25;"/><path d="M265.0195,329.5313 L265.0195,332.0313 Q263.1641,332.7539 260.8789,332.7539 Q257.4805,332.7539 255.6641,330.6641 Q253.8477,328.5742 253.8477,324.8047 Q253.8477,321.1719 255.8203,319.043 Q257.793,316.8945 261.1914,316.8945 Q263.5742,316.8945 265.7617,318.0273 L264.5508,320.332 Q262.6758,319.4141 261.1914,319.4141 Q259.1602,319.4141 257.9492,320.8594 Q256.7383,322.2852 256.7383,324.8242 Q256.7383,327.5391 257.8711,328.9063 Q259.0039,330.2539 261.1914,330.2539 Q262.4805,330.2539 265.0195,329.5313 Z " fill="#000000"/><text fill="#000000" font-family="sans-serif" font-size="15" lengthAdjust="spacingAndGlyphs" textLength="52.5" x="278.75" y="330.1343">Pointer</text><line style="stroke:#A80036;stroke-width:1.875;" x1="243.75" x2="333.75" y1="344.9414" y2="344.9414"/><line style="stroke:#A80036;stroke-width:1.875;" x1="243.75" x2="333.75" y1="354.9414" y2="354.9414"/><!--MD5=[8bc3de938a7e31712b006f9406671d3e]
class Binding--><rect fill="#FEFECE" filter="url(#fr0uc7er84of2)" height="60" id="Binding" style="stroke:#A80036;stroke-width:1.875;" width="97.5" x="335" y="439.9414"/><ellipse cx="353.75" cy="459.9414" fill="#ADD1B2" rx="13.75" ry="13.75" style="stroke:#A80036;stroke-width:1.25;"/><path d="M357.5195,464.5313 L357.5195,467.0313 Q355.6641,467.7539 353.3789,467.7539 Q349.9805,467.7539 348.1641,465.6641 Q346.3477,463.5742 346.3477,459.8047 Q346.3477,456.1719 348.3203,454.043 Q350.293,451.8945 353.6914,451.8945 Q356.0742,451.8945 358.2617,453.0273 L357.0508,455.332 Q355.1758,454.4141 353.6914,454.4141 Q351.6602,454.4141 350.4492,455.8594 Q349.2383,457.2852 349.2383,459.8242 Q349.2383,462.5391 350.3711,463.9063 Q351.5039,465.2539 353.6914,465.2539 Q354.9805,465.2539 357.5195,464.5313 Z " fill="#000000"/><text fill="#000000" font-family="sans-serif" font-size="15" lengthAdjust="spacingAndGlyphs" textLength="57.5" x="371.25" y="465.1343">Binding</text><line style="stroke:#A80036;stroke-width:1.875;" x1="336.25" x2="431.25" y1="479.9414" y2="479.9414"/><line style="stroke:#A80036;stroke-width:1.875;" x1="336.25" x2="431.25" y1="489.9414" y2="489.9414"/><!--MD5=[3637e2e3ff64f8c7ec072f5df5e3a1dc]
class Expression--><rect fill="#FEFECE" filter="url(#fr0uc7er84of2)" height="60" id="Expression" style="stroke:#A80036;stroke-width:1.875;" width="121.25" x="468.125" y="304.9414"/><ellipse cx="486.875" cy="324.9414" fill="#ADD1B2" rx="13.75" ry="13.75" style="stroke:#A80036;stroke-width:1.25;"/><path d="M490.6445,329.5313 L490.6445,332.0313 Q488.7891,332.7539 486.5039,332.7539 Q483.1055,332.7539 481.2891,330.6641 Q479.4727,328.5742 479.4727,324.8047 Q479.4727,321.1719 481.4453,319.043 Q483.418,316.8945 486.8164,316.8945 Q489.1992,316.8945 491.3867,318.0273 L490.1758,320.332 Q488.3008,319.4141 486.8164,319.4141 Q484.7852,319.4141 483.5742,320.8594 Q482.3633,322.2852 482.3633,324.8242 Q482.3633,327.5391 483.4961,328.9063 Q484.6289,330.2539 486.8164,330.2539 Q488.1055,330.2539 490.6445,329.5313 Z " fill="#000000"/><text fill="#000000" font-family="sans-serif" font-size="15" lengthAdjust="spacingAndGlyphs" textLength="81.25" x="504.375" y="330.1343">Expression</text><line style="stroke:#A80036;stroke-width:1.875;" x1="469.375" x2="588.125" y1="344.9414" y2="344.9414"/><line style="stroke:#A80036;stroke-width:1.875;" x1="469.375" x2="588.125" y1="354.9414" y2="354.9414"/><!--MD5=[a097d1d4e764bf1daa70b09b2cda7289]
class AttributeBinding--><rect fill="#FEFECE" filter="url(#fr0uc7er84of2)" height="60" id="AttributeBinding" style="stroke:#A80036;stroke-width:1.875;" width="165" x="8.75" y="574.9414"/><ellipse cx="27.5" cy="594.9414" fill="#ADD1B2" rx="13.75" ry="13.75" style="stroke:#A80036;stroke-width:1.25;"/><path d="M31.2695,599.5313 L31.2695,602.0313 Q29.4141,602.7539 27.1289,602.7539 Q23.7305,602.7539 21.9141,600.6641 Q20.0977,598.5742 20.0977,594.8047 Q20.0977,591.1719 22.0703,589.043 Q24.043,586.8945 27.4414,586.8945 Q29.8242,586.8945 32.0117,588.0273 L30.8008,590.332 Q28.9258,589.4141 27.4414,589.4141 Q25.4102,589.4141 24.1992,590.8594 Q22.9883,592.2852 22.9883,594.8242 Q22.9883,597.5391 24.1211,598.9063 Q25.2539,600.2539 27.4414,600.2539 Q28.7305,600.2539 31.2695,599.5313 Z " fill="#000000"/><text fill="#000000" font-family="sans-serif" font-size="15" lengthAdjust="spacingAndGlyphs" textLength="125" x="45" y="600.1343">AttributeBinding</text><line style="stroke:#A80036;stroke-width:1.875;" x1="10" x2="172.5" y1="614.9414" y2="614.9414"/><line style="stroke:#A80036;stroke-width:1.875;" x1="10" x2="172.5" y1="624.9414" y2="624.9414"/><!--MD5=[08b00b74ba08ecdb0010710925439892]
class StyleBinding--><rect fill="#FEFECE" filter="url(#fr0uc7er84of2)" height="60" id="StyleBinding" style="stroke:#A80036;stroke-width:1.875;" width="135" x="217.5" y="574.9414"/><ellipse cx="236.25" cy="594.9414" fill="#ADD1B2" rx="13.75" ry="13.75" style="stroke:#A80036;stroke-width:1.25;"/><path d="M240.0195,599.5313 L240.0195,602.0313 Q238.1641,602.7539 235.8789,602.7539 Q232.4805,602.7539 230.6641,600.6641 Q228.8477,598.5742 228.8477,594.8047 Q228.8477,591.1719 230.8203,589.043 Q232.793,586.8945 236.1914,586.8945 Q238.5742,586.8945 240.7617,588.0273 L239.5508,590.332 Q237.6758,589.4141 236.1914,589.4141 Q234.1602,589.4141 232.9492,590.8594 Q231.7383,592.2852 231.7383,594.8242 Q231.7383,597.5391 232.8711,598.9063 Q234.0039,600.2539 236.1914,600.2539 Q237.4805,600.2539 240.0195,599.5313 Z " fill="#000000"/><text fill="#000000" font-family="sans-serif" font-size="15" lengthAdjust="spacingAndGlyphs" textLength="95" x="253.75" y="600.1343">StyleBinding</text><line style="stroke:#A80036;stroke-width:1.875;" x1="218.75" x2="351.25" y1="614.9414" y2="614.9414"/><line style="stroke:#A80036;stroke-width:1.875;" x1="218.75" x2="351.25" y1="624.9414" y2="624.9414"/><!--MD5=[7b7984bd3630f9f43f5d615bc6429d87]
class ClassBinding--><rect fill="#FEFECE" filter="url(#fr0uc7er84of2)" height="60" id="ClassBinding" style="stroke:#A80036;stroke-width:1.875;" width="135" x="396.25" y="574.9414"/><ellipse cx="415" cy="594.9414" fill="#ADD1B2" rx="13.75" ry="13.75" style="stroke:#A80036;stroke-width:1.25;"/><path d="M418.7695,599.5313 L418.7695,602.0313 Q416.9141,602.7539 414.6289,602.7539 Q411.2305,602.7539 409.4141,600.6641 Q407.5977,598.5742 407.5977,594.8047 Q407.5977,591.1719 409.5703,589.043 Q411.543,586.8945 414.9414,586.8945 Q417.3242,586.8945 419.5117,588.0273 L418.3008,590.332 Q416.4258,589.4141 414.9414,589.4141 Q412.9102,589.4141 411.6992,590.8594 Q410.4883,592.2852 410.4883,594.8242 Q410.4883,597.5391 411.6211,598.9063 Q412.7539,600.2539 414.9414,600.2539 Q416.2305,600.2539 418.7695,599.5313 Z " fill="#000000"/><text fill="#000000" font-family="sans-serif" font-size="15" lengthAdjust="spacingAndGlyphs" textLength="95" x="432.5" y="600.1343">ClassBinding</text><line style="stroke:#A80036;stroke-width:1.875;" x1="397.5" x2="530" y1="614.9414" y2="614.9414"/><line style="stroke:#A80036;stroke-width:1.875;" x1="397.5" x2="530" y1="624.9414" y2="624.9414"/><!--MD5=[e65fce124287dcb93d674d408f416346]
class BaseNode--><rect fill="#FEFECE" filter="url(#fr0uc7er84of2)" height="60" id="BaseNode" style="stroke:#A80036;stroke-width:1.875;" width="113.75" x="674.375" y="439.9414"/><ellipse cx="693.125" cy="459.9414" fill="#ADD1B2" rx="13.75" ry="13.75" style="stroke:#A80036;stroke-width:1.25;"/><path d="M696.8945,464.5313 L696.8945,467.0313 Q695.0391,467.7539 692.7539,467.7539 Q689.3555,467.7539 687.5391,465.6641 Q685.7227,463.5742 685.7227,459.8047 Q685.7227,456.1719 687.6953,454.043 Q689.668,451.8945 693.0664,451.8945 Q695.4492,451.8945 697.6367,453.0273 L696.4258,455.332 Q694.5508,454.4141 693.0664,454.4141 Q691.0352,454.4141 689.8242,455.8594 Q688.6133,457.2852 688.6133,459.8242 Q688.6133,462.5391 689.7461,463.9063 Q690.8789,465.2539 693.0664,465.2539 Q694.3555,465.2539 696.8945,464.5313 Z " fill="#000000"/><text fill="#000000" font-family="sans-serif" font-size="15" lengthAdjust="spacingAndGlyphs" textLength="73.75" x="710.625" y="465.1343">BaseNode</text><line style="stroke:#A80036;stroke-width:1.875;" x1="675.625" x2="786.875" y1="479.9414" y2="479.9414"/><line style="stroke:#A80036;stroke-width:1.875;" x1="675.625" x2="786.875" y1="489.9414" y2="489.9414"/><!--MD5=[cfb71f71d8b2ca9b80feccc3834cab4f]
class TextNode--><rect fill="#FEFECE" filter="url(#fr0uc7er84of2)" height="60" id="TextNode" style="stroke:#A80036;stroke-width:1.875;" width="111.25" x="831.875" y="439.9414"/><ellipse cx="850.625" cy="459.9414" fill="#ADD1B2" rx="13.75" ry="13.75" style="stroke:#A80036;stroke-width:1.25;"/><path d="M854.3945,464.5313 L854.3945,467.0313 Q852.5391,467.7539 850.2539,467.7539 Q846.8555,467.7539 845.0391,465.6641 Q843.2227,463.5742 843.2227,459.8047 Q843.2227,456.1719 845.1953,454.043 Q847.168,451.8945 850.5664,451.8945 Q852.9492,451.8945 855.1367,453.0273 L853.9258,455.332 Q852.0508,454.4141 850.5664,454.4141 Q848.5352,454.4141 847.3242,455.8594 Q846.1133,457.2852 846.1133,459.8242 Q846.1133,462.5391 847.2461,463.9063 Q848.3789,465.2539 850.5664,465.2539 Q851.8555,465.2539 854.3945,464.5313 Z " fill="#000000"/><text fill="#000000" font-family="sans-serif" font-size="15" lengthAdjust="spacingAndGlyphs" textLength="71.25" x="868.125" y="465.1343">TextNode</text><line style="stroke:#A80036;stroke-width:1.875;" x1="833.125" x2="941.875" y1="479.9414" y2="479.9414"/><line style="stroke:#A80036;stroke-width:1.875;" x1="833.125" x2="941.875" y1="489.9414" y2="489.9414"/><!--MD5=[2138b6995a72b82626e194b1c055e1cf]
class ExtensionNode--><rect fill="#FEFECE" filter="url(#fr0uc7er84of2)" height="60" id="ExtensionNode" style="stroke:#A80036;stroke-width:1.875;" width="152.5" x="575" y="574.9414"/><ellipse cx="593.75" cy="594.9414" fill="#ADD1B2" rx="13.75" ry="13.75" style="stroke:#A80036;stroke-width:1.25;"/><path d="M597.5195,599.5313 L597.5195,602.0313 Q595.6641,602.7539 593.3789,602.7539 Q589.9805,602.7539 588.1641,600.6641 Q586.3477,598.5742 586.3477,594.8047 Q586.3477,591.1719 588.3203,589.043 Q590.293,586.8945 593.6914,586.8945 Q596.0742,586.8945 598.2617,588.0273 L597.0508,590.332 Q595.1758,589.4141 593.6914,589.4141 Q591.6602,589.4141 590.4492,590.8594 Q589.2383,592.2852 589.2383,594.8242 Q589.2383,597.5391 590.3711,598.9063 Q591.5039,600.2539 593.6914,600.2539 Q594.9805,600.2539 597.5195,599.5313 Z " fill="#000000"/><text fill="#000000" font-family="sans-serif" font-size="15" lengthAdjust="spacingAndGlyphs" textLength="112.5" x="611.25" y="600.1343">ExtensionNode</text><line style="stroke:#A80036;stroke-width:1.875;" x1="576.25" x2="726.25" y1="614.9414" y2="614.9414"/><line style="stroke:#A80036;stroke-width:1.875;" x1="576.25" x2="726.25" y1="624.9414" y2="624.9414"/><!--MD5=[fbdaf7ea60489f2d3b7e38c34e4aa506]
class AppNode--><rect fill="#FEFECE" filter="url(#fr0uc7er84of2)" height="60" id="AppNode" style="stroke:#A80036;stroke-width:1.875;" width="108.75" x="771.875" y="574.9414"/><ellipse cx="790.625" cy="594.9414" fill="#ADD1B2" rx="13.75" ry="13.75" style="stroke:#A80036;stroke-width:1.25;"/><path d="M794.3945,599.5313 L794.3945,602.0313 Q792.5391,602.7539 790.2539,602.7539 Q786.8555,602.7539 785.0391,600.6641 Q783.2227,598.5742 783.2227,594.8047 Q783.2227,591.1719 785.1953,589.043 Q787.168,586.8945 790.5664,586.8945 Q792.9492,586.8945 795.1367,588.0273 L793.9258,590.332 Q792.0508,589.4141 790.5664,589.4141 Q788.5352,589.4141 787.3242,590.8594 Q786.1133,592.2852 786.1133,594.8242 Q786.1133,597.5391 787.2461,598.9063 Q788.3789,600.2539 790.5664,600.2539 Q791.8555,600.2539 794.3945,599.5313 Z " fill="#000000"/><text fill="#000000" font-family="sans-serif" font-size="15" lengthAdjust="spacingAndGlyphs" textLength="68.75" x="808.125" y="600.1343">AppNode</text><line style="stroke:#A80036;stroke-width:1.875;" x1="773.125" x2="879.375" y1="614.9414" y2="614.9414"/><line style="stroke:#A80036;stroke-width:1.875;" x1="773.125" x2="879.375" y1="624.9414" y2="624.9414"/><!--MD5=[4592ad92c4746413d7b535860abe71ea]
class TagNode--><rect fill="#FEFECE" filter="url(#fr0uc7er84of2)" height="60" id="TagNode" style="stroke:#A80036;stroke-width:1.875;" width="106.25" x="924.375" y="574.9414"/><ellipse cx="943.125" cy="594.9414" fill="#ADD1B2" rx="13.75" ry="13.75" style="stroke:#A80036;stroke-width:1.25;"/><path d="M946.8945,599.5313 L946.8945,602.0313 Q945.0391,602.7539 942.7539,602.7539 Q939.3555,602.7539 937.5391,600.6641 Q935.7227,598.5742 935.7227,594.8047 Q935.7227,591.1719 937.6953,589.043 Q939.668,586.8945 943.0664,586.8945 Q945.4492,586.8945 947.6367,588.0273 L946.4258,590.332 Q944.5508,589.4141 943.0664,589.4141 Q941.0352,589.4141 939.8242,590.8594 Q938.6133,592.2852 938.6133,594.8242 Q938.6133,597.5391 939.7461,598.9063 Q940.8789,600.2539 943.0664,600.2539 Q944.3555,600.2539 946.8945,599.5313 Z " fill="#000000"/><text fill="#000000" font-family="sans-serif" font-size="15" lengthAdjust="spacingAndGlyphs" textLength="66.25" x="960.625" y="600.1343">TagNode</text><line style="stroke:#A80036;stroke-width:1.875;" x1="925.625" x2="1029.375" y1="614.9414" y2="614.9414"/><line style="stroke:#A80036;stroke-width:1.875;" x1="925.625" x2="1029.375" y1="624.9414" y2="624.9414"/><!--MD5=[7a6f96650cf8b98d9d897dc87305dab7]
class SwitchNode--><rect fill="#FEFECE" filter="url(#fr0uc7er84of2)" height="60" id="SwitchNode" style="stroke:#A80036;stroke-width:1.875;" width="130" x="411.25" y="709.9414"/><ellipse cx="430" cy="729.9414" fill="#ADD1B2" rx="13.75" ry="13.75" style="stroke:#A80036;stroke-width:1.25;"/><path d="M433.7695,734.5313 L433.7695,737.0313 Q431.9141,737.7539 429.6289,737.7539 Q426.2305,737.7539 424.4141,735.6641 Q422.5977,733.5742 422.5977,729.8047 Q422.5977,726.1719 424.5703,724.043 Q426.543,721.8945 429.9414,721.8945 Q432.3242,721.8945 434.5117,723.0273 L433.3008,725.332 Q431.4258,724.4141 429.9414,724.4141 Q427.9102,724.4141 426.6992,725.8594 Q425.4883,727.2852 425.4883,729.8242 Q425.4883,732.5391 426.6211,733.9063 Q427.7539,735.2539 429.9414,735.2539 Q431.2305,735.2539 433.7695,734.5313 Z " fill="#000000"/><text fill="#000000" font-family="sans-serif" font-size="15" lengthAdjust="spacingAndGlyphs" textLength="90" x="447.5" y="735.1343">SwitchNode</text><line style="stroke:#A80036;stroke-width:1.875;" x1="412.5" x2="540" y1="749.9414" y2="749.9414"/><line style="stroke:#A80036;stroke-width:1.875;" x1="412.5" x2="540" y1="759.9414" y2="759.9414"/><!--MD5=[60cae997afac581db492f7614b7b83c4]
class RepeatNode--><rect fill="#FEFECE" filter="url(#fr0uc7er84of2)" height="60" id="RepeatNode" style="stroke:#A80036;stroke-width:1.875;" width="131.25" x="585.625" y="709.9414"/><ellipse cx="604.375" cy="729.9414" fill="#ADD1B2" rx="13.75" ry="13.75" style="stroke:#A80036;stroke-width:1.25;"/><path d="M608.1445,734.5313 L608.1445,737.0313 Q606.2891,737.7539 604.0039,737.7539 Q600.6055,737.7539 598.7891,735.6641 Q596.9727,733.5742 596.9727,729.8047 Q596.9727,726.1719 598.9453,724.043 Q600.918,721.8945 604.3164,721.8945 Q606.6992,721.8945 608.8867,723.0273 L607.6758,725.332 Q605.8008,724.4141 604.3164,724.4141 Q602.2852,724.4141 601.0742,725.8594 Q599.8633,727.2852 599.8633,729.8242 Q599.8633,732.5391 600.9961,733.9063 Q602.1289,735.2539 604.3164,735.2539 Q605.6055,735.2539 608.1445,734.5313 Z " fill="#000000"/><text fill="#000000" font-family="sans-serif" font-size="15" lengthAdjust="spacingAndGlyphs" textLength="91.25" x="621.875" y="735.1343">RepeatNode</text><line style="stroke:#A80036;stroke-width:1.875;" x1="586.875" x2="715.625" y1="749.9414" y2="749.9414"/><line style="stroke:#A80036;stroke-width:1.875;" x1="586.875" x2="715.625" y1="759.9414" y2="759.9414"/><!--MD5=[81d4034943a9a506c44a0396a7f3438f]
class RepeatNodeItem--><rect fill="#FEFECE" filter="url(#fr0uc7er84of2)" height="60" id="RepeatNodeItem" style="stroke:#A80036;stroke-width:1.875;" width="166.25" x="760.625" y="709.9414"/><ellipse cx="779.375" cy="729.9414" fill="#ADD1B2" rx="13.75" ry="13.75" style="stroke:#A80036;stroke-width:1.25;"/><path d="M783.1445,734.5313 L783.1445,737.0313 Q781.2891,737.7539 779.0039,737.7539 Q775.6055,737.7539 773.7891,735.6641 Q771.9727,733.5742 771.9727,729.8047 Q771.9727,726.1719 773.9453,724.043 Q775.918,721.8945 779.3164,721.8945 Q781.6992,721.8945 783.8867,723.0273 L782.6758,725.332 Q780.8008,724.4141 779.3164,724.4141 Q777.2852,724.4141 776.0742,725.8594 Q774.8633,727.2852 774.8633,729.8242 Q774.8633,732.5391 775.9961,733.9063 Q777.1289,735.2539 779.3164,735.2539 Q780.6055,735.2539 783.1445,734.5313 Z " fill="#000000"/><text fill="#000000" font-family="sans-serif" font-size="15" lengthAdjust="spacingAndGlyphs" textLength="126.25" x="796.875" y="735.1343">RepeatNodeItem</text><line style="stroke:#A80036;stroke-width:1.875;" x1="761.875" x2="925.625" y1="749.9414" y2="749.9414"/><line style="stroke:#A80036;stroke-width:1.875;" x1="761.875" x2="925.625" y1="759.9414" y2="759.9414"/><!--MD5=[7f71caf2f03bc97de09c89514fe9107d]
class BaseView--><rect fill="#FEFECE" filter="url(#fr0uc7er84of2)" height="60" id="BaseView" style="stroke:#A80036;stroke-width:1.875;" width="110" x="520" y="844.9414"/><ellipse cx="538.75" cy="864.9414" fill="#ADD1B2" rx="13.75" ry="13.75" style="stroke:#A80036;stroke-width:1.25;"/><path d="M542.5195,869.5313 L542.5195,872.0313 Q540.6641,872.7539 538.3789,872.7539 Q534.9805,872.7539 533.1641,870.6641 Q531.3477,868.5742 531.3477,864.8047 Q531.3477,861.1719 533.3203,859.043 Q535.293,856.8945 538.6914,856.8945 Q541.0742,856.8945 543.2617,858.0273 L542.0508,860.332 Q540.1758,859.4141 538.6914,859.4141 Q536.6602,859.4141 535.4492,860.8594 Q534.2383,862.2852 534.2383,864.8242 Q534.2383,867.5391 535.3711,868.9063 Q536.5039,870.2539 538.6914,870.2539 Q539.9805,870.2539 542.5195,869.5313 Z " fill="#000000"/><text fill="#000000" font-family="sans-serif" font-size="15" lengthAdjust="spacingAndGlyphs" textLength="70" x="556.25" y="870.1343">BaseView</text><line style="stroke:#A80036;stroke-width:1.875;" x1="521.25" x2="628.75" y1="884.9414" y2="884.9414"/><line style="stroke:#A80036;stroke-width:1.875;" x1="521.25" x2="628.75" y1="894.9414" y2="894.9414"/><!--MD5=[5ec8c00c13391aeaac8c08bdf7a77295]
class Repeater--><rect fill="#FEFECE" filter="url(#fr0uc7er84of2)" height="60" id="Repeater" style="stroke:#A80036;stroke-width:1.875;" width="107.5" x="673.75" y="844.9414"/><ellipse cx="692.5" cy="864.9414" fill="#ADD1B2" rx="13.75" ry="13.75" style="stroke:#A80036;stroke-width:1.25;"/><path d="M696.2695,869.5313 L696.2695,872.0313 Q694.4141,872.7539 692.1289,872.7539 Q688.7305,872.7539 686.9141,870.6641 Q685.0977,868.5742 685.0977,864.8047 Q685.0977,861.1719 687.0703,859.043 Q689.043,856.8945 692.4414,856.8945 Q694.8242,856.8945 697.0117,858.0273 L695.8008,860.332 Q693.9258,859.4141 692.4414,859.4141 Q690.4102,859.4141 689.1992,860.8594 Q687.9883,862.2852 687.9883,864.8242 Q687.9883,867.5391 689.1211,868.9063 Q690.2539,870.2539 692.4414,870.2539 Q693.7305,870.2539 696.2695,869.5313 Z " fill="#000000"/><text fill="#000000" font-family="sans-serif" font-size="15" lengthAdjust="spacingAndGlyphs" textLength="67.5" x="710" y="870.1343">Repeater</text><line style="stroke:#A80036;stroke-width:1.875;" x1="675" x2="780" y1="884.9414" y2="884.9414"/><line style="stroke:#A80036;stroke-width:1.875;" x1="675" x2="780" y1="894.9414" y2="894.9414"/><!--MD5=[704c572d6ddfff3f8ae9d9249edfa29e]
class ArrayView--><rect fill="#FEFECE" filter="url(#fr0uc7er84of2)" height="60" id="ArrayView" style="stroke:#A80036;stroke-width:1.875;" width="115" x="275" y="979.9414"/><ellipse cx="293.75" cy="999.9414" fill="#ADD1B2" rx="13.75" ry="13.75" style="stroke:#A80036;stroke-width:1.25;"/><path d="M297.5195,1004.5313 L297.5195,1007.0313 Q295.6641,1007.7539 293.3789,1007.7539 Q289.9805,1007.7539 288.1641,1005.6641 Q286.3477,1003.5742 286.3477,999.8047 Q286.3477,996.1719 288.3203,994.043 Q290.293,991.8945 293.6914,991.8945 Q296.0742,991.8945 298.2617,993.0273 L297.0508,995.332 Q295.1758,994.4141 293.6914,994.4141 Q291.6602,994.4141 290.4492,995.8594 Q289.2383,997.2852 289.2383,999.8242 Q289.2383,1002.5391 290.3711,1003.9063 Q291.5039,1005.2539 293.6914,1005.2539 Q294.9805,1005.2539 297.5195,1004.5313 Z " fill="#000000"/><text fill="#000000" font-family="sans-serif" font-size="15" lengthAdjust="spacingAndGlyphs" textLength="75" x="311.25" y="1005.1343">ArrayView</text><line style="stroke:#A80036;stroke-width:1.875;" x1="276.25" x2="388.75" y1="1019.9414" y2="1019.9414"/><line style="stroke:#A80036;stroke-width:1.875;" x1="276.25" x2="388.75" y1="1029.9414" y2="1029.9414"/><!--MD5=[34aa44afce17f5bd91ed70547120b567]
class ObjectView--><rect fill="#FEFECE" filter="url(#fr0uc7er84of2)" height="60" id="ObjectView" style="stroke:#A80036;stroke-width:1.875;" width="123.75" x="434.375" y="979.9414"/><ellipse cx="453.125" cy="999.9414" fill="#ADD1B2" rx="13.75" ry="13.75" style="stroke:#A80036;stroke-width:1.25;"/><path d="M456.8945,1004.5313 L456.8945,1007.0313 Q455.0391,1007.7539 452.7539,1007.7539 Q449.3555,1007.7539 447.5391,1005.6641 Q445.7227,1003.5742 445.7227,999.8047 Q445.7227,996.1719 447.6953,994.043 Q449.668,991.8945 453.0664,991.8945 Q455.4492,991.8945 457.6367,993.0273 L456.4258,995.332 Q454.5508,994.4141 453.0664,994.4141 Q451.0352,994.4141 449.8242,995.8594 Q448.6133,997.2852 448.6133,999.8242 Q448.6133,1002.5391 449.7461,1003.9063 Q450.8789,1005.2539 453.0664,1005.2539 Q454.3555,1005.2539 456.8945,1004.5313 Z " fill="#000000"/><text fill="#000000" font-family="sans-serif" font-size="15" lengthAdjust="spacingAndGlyphs" textLength="83.75" x="470.625" y="1005.1343">ObjectView</text><line style="stroke:#A80036;stroke-width:1.875;" x1="435.625" x2="556.875" y1="1019.9414" y2="1019.9414"/><line style="stroke:#A80036;stroke-width:1.875;" x1="435.625" x2="556.875" y1="1029.9414" y2="1029.9414"/><!--MD5=[55f0b2683249973f2f639c338784ad20]
class MapView--><rect fill="#FEFECE" filter="url(#fr0uc7er84of2)" height="60" id="MapView" style="stroke:#A80036;stroke-width:1.875;" width="106.25" x="601.875" y="979.9414"/><ellipse cx="620.625" cy="999.9414" fill="#ADD1B2" rx="13.75" ry="13.75" style="stroke:#A80036;stroke-width:1.25;"/><path d="M624.3945,1004.5313 L624.3945,1007.0313 Q622.5391,1007.7539 620.2539,1007.7539 Q616.8555,1007.7539 615.0391,1005.6641 Q613.2227,1003.5742 613.2227,999.8047 Q613.2227,996.1719 615.1953,994.043 Q617.168,991.8945 620.5664,991.8945 Q622.9492,991.8945 625.1367,993.0273 L623.9258,995.332 Q622.0508,994.4141 620.5664,994.4141 Q618.5352,994.4141 617.3242,995.8594 Q616.1133,997.2852 616.1133,999.8242 Q616.1133,1002.5391 617.2461,1003.9063 Q618.3789,1005.2539 620.5664,1005.2539 Q621.8555,1005.2539 624.3945,1004.5313 Z " fill="#000000"/><text fill="#000000" font-family="sans-serif" font-size="15" lengthAdjust="spacingAndGlyphs" textLength="66.25" x="638.125" y="1005.1343">MapView</text><line style="stroke:#A80036;stroke-width:1.875;" x1="603.125" x2="706.875" y1="1019.9414" y2="1019.9414"/><line style="stroke:#A80036;stroke-width:1.875;" x1="603.125" x2="706.875" y1="1029.9414" y2="1029.9414"/><!--MD5=[38fd6180ca6eef27836d88a67eb15ffe]
class SetView--><rect fill="#FEFECE" filter="url(#fr0uc7er84of2)" height="60" id="SetView" style="stroke:#A80036;stroke-width:1.875;" width="100" x="752.5" y="979.9414"/><ellipse cx="771.25" cy="999.9414" fill="#ADD1B2" rx="13.75" ry="13.75" style="stroke:#A80036;stroke-width:1.25;"/><path d="M775.0195,1004.5313 L775.0195,1007.0313 Q773.1641,1007.7539 770.8789,1007.7539 Q767.4805,1007.7539 765.6641,1005.6641 Q763.8477,1003.5742 763.8477,999.8047 Q763.8477,996.1719 765.8203,994.043 Q767.793,991.8945 771.1914,991.8945 Q773.5742,991.8945 775.7617,993.0273 L774.5508,995.332 Q772.6758,994.4141 771.1914,994.4141 Q769.1602,994.4141 767.9492,995.8594 Q766.7383,997.2852 766.7383,999.8242 Q766.7383,1002.5391 767.8711,1003.9063 Q769.0039,1005.2539 771.1914,1005.2539 Q772.4805,1005.2539 775.0195,1004.5313 Z " fill="#000000"/><text fill="#000000" font-family="sans-serif" font-size="15" lengthAdjust="spacingAndGlyphs" textLength="60" x="788.75" y="1005.1343">SetView</text><line style="stroke:#A80036;stroke-width:1.875;" x1="753.75" x2="851.25" y1="1019.9414" y2="1019.9414"/><line style="stroke:#A80036;stroke-width:1.875;" x1="753.75" x2="851.25" y1="1029.9414" y2="1029.9414"/><!--MD5=[296910cd91cf7a3feea6ca161b5b4f99]
reverse link Destroyable to IValue--><path codeLine="3" d="M434.675,118.1539 C427.425,135.6164 419.6125,154.4664 413.35,169.5414 " fill="none" id="Destroyable-backto-IValue" style="stroke:#A80036;stroke-width:1.25;"/><polygon fill="none" points="426.65,114.6789,444.3125,94.9414,442.8125,121.3914,426.65,114.6789" style="stroke:#A80036;stroke-width:1.25;"/><!--MD5=[3985025d9dfa4ff9455b041edc74c1c1]
reverse link Destroyable to VasilleNode--><path codeLine="4" d="M504.325,112.9539 C561.1375,168.2164 653.9375,258.4789 701.3375,304.5914 " fill="none" id="Destroyable-backto-VasilleNode" style="stroke:#A80036;stroke-width:1.25;"/><polygon fill="none" points="498.025,119.0289,486.2,95.3289,510.225,106.4914,498.025,119.0289" style="stroke:#A80036;stroke-width:1.25;"/><!--MD5=[af5b737bbc88140202efbb99f7766650]
reverse link IValue to Reference--><path codeLine="6" d="M335.025,234.9414 C292.725,256.4914 238.4625,284.1539 198.125,304.7039 " fill="none" id="IValue-backto-Reference" style="stroke:#A80036;stroke-width:1.25;"/><polygon fill="none" points="331.4875,226.9289,357.7375,223.3664,339.425,242.5164,331.4875,226.9289" style="stroke:#A80036;stroke-width:1.25;"/><!--MD5=[afdd7f8fe380d65d771b3743b2deed63]
reverse link IValue to Pointer--><path codeLine="7" d="M360.175,249.5664 C344.525,268.0039 327.175,288.4289 313.5,304.5414 " fill="none" id="IValue-backto-Pointer" style="stroke:#A80036;stroke-width:1.25;"/><polygon fill="none" points="353.9875,243.3414,376.8375,229.9414,367.325,254.6664,353.9875,243.3414" style="stroke:#A80036;stroke-width:1.25;"/><!--MD5=[3ebe14c4b2ef1a816eeb26c243b8484b]
reverse link IValue to Binding--><path codeLine="8" d="M397.7,255.3664 C394.0625,311.0039 388.5375,395.4914 385.65,439.5914 " fill="none" id="IValue-backto-Binding" style="stroke:#A80036;stroke-width:1.25;"/><polygon fill="none" points="388.975,254.7039,399.35,230.3289,406.4375,255.8414,388.975,254.7039" style="stroke:#A80036;stroke-width:1.25;"/><!--MD5=[518e2573ce74ee225b953e7936b37c52]
reverse link IValue to Expression--><path codeLine="9" d="M446.6625,248.3789 C464.6875,267.1164 484.8625,288.0789 500.7,304.5414 " fill="none" id="IValue-backto-Expression" style="stroke:#A80036;stroke-width:1.25;"/><polygon fill="none" points="439.95,254.0289,428.9125,229.9414,452.55,241.8914,439.95,254.0289" style="stroke:#A80036;stroke-width:1.25;"/><!--MD5=[c1cc80dd68f24939a5d315883ab9d1d7]
reverse link Binding to AttributeBinding--><path codeLine="10" d="M311.8875,503.7414 C263.9375,525.4664 201.4625,553.7664 155.225,574.7039 " fill="none" id="Binding-backto-AttributeBinding" style="stroke:#A80036;stroke-width:1.25;"/><polygon fill="none" points="308.4125,495.7164,334.7875,493.3664,315.625,511.6539,308.4125,495.7164" style="stroke:#A80036;stroke-width:1.25;"/><!--MD5=[5fd0d572bcc6c1beb85a8e798ed53fc8]
reverse link Binding to StyleBinding--><path codeLine="11" d="M347.25,520.1664 C333.625,538.4414 318.6,558.6039 306.725,574.5414 " fill="none" id="Binding-backto-StyleBinding" style="stroke:#A80036;stroke-width:1.25;"/><polygon fill="none" points="340.3625,514.7539,362.325,499.9414,354.4,525.2164,340.3625,514.7539" style="stroke:#A80036;stroke-width:1.25;"/><!--MD5=[49d8d5f064558c0f9858c7caf8ad01ad]
reverse link Binding to ClassBinding--><path codeLine="12" d="M414.0375,521.3539 C424.8875,539.3164 436.7375,558.9539 446.15,574.5414 " fill="none" id="Binding-backto-ClassBinding" style="stroke:#A80036;stroke-width:1.25;"/><polygon fill="none" points="406.5375,525.8664,401.1125,499.9414,421.525,516.8164,406.5375,525.8664" style="stroke:#A80036;stroke-width:1.25;"/><!--MD5=[5589e737b1bba3d96fa75b63200c2482]
reverse link VasilleNode to BaseNode--><path codeLine="14" d="M731.25,389.9664 C731.25,406.9164 731.25,424.9914 731.25,439.5414 " fill="none" id="VasilleNode-backto-BaseNode" style="stroke:#A80036;stroke-width:1.25;"/><polygon fill="none" points="722.5,389.9414,731.25,364.9414,740,389.9414,722.5,389.9414" style="stroke:#A80036;stroke-width:1.25;"/><!--MD5=[8c41d82b08653b3c6e74ba8ece592115]
reverse link VasilleNode to TextNode--><path codeLine="15" d="M784.475,381.3164 C807.175,400.5664 833,422.4789 853.125,439.5414 " fill="none" id="VasilleNode-backto-TextNode" style="stroke:#A80036;stroke-width:1.25;"/><polygon fill="none" points="778.5625,387.7789,765.15,364.9414,789.875,374.4414,778.5625,387.7789" style="stroke:#A80036;stroke-width:1.25;"/><!--MD5=[c08821e78387c1baf46f5ac867a1d405]
reverse link BaseNode to ExtensionNode--><path codeLine="17" d="M700.9625,521.3539 C690.1125,539.3164 678.2625,558.9539 668.85,574.5414 " fill="none" id="BaseNode-backto-ExtensionNode" style="stroke:#A80036;stroke-width:1.25;"/><polygon fill="none" points="693.475,516.8164,713.8875,499.9414,708.4625,525.8664,693.475,516.8164" style="stroke:#A80036;stroke-width:1.25;"/><!--MD5=[de1d6830d5084afaa9c019fe10a8d8a4]
reverse link BaseNode to AppNode--><path codeLine="18" d="M766.7875,520.7664 C779.775,538.8789 794.05,558.7789 805.35,574.5414 " fill="none" id="BaseNode-backto-AppNode" style="stroke:#A80036;stroke-width:1.25;"/><polygon fill="none" points="759.325,525.3539,751.8625,499.9414,773.5375,515.1664,759.325,525.3539" style="stroke:#A80036;stroke-width:1.25;"/><!--MD5=[603e221953dbf7f5049ba49faabc9177]
reverse link BaseNode to TagNode--><path codeLine="19" d="M807.2,512.0664 C845.0875,532.4414 889.9875,556.6039 924.175,574.9914 " fill="none" id="BaseNode-backto-TagNode" style="stroke:#A80036;stroke-width:1.25;"/><polygon fill="none" points="802.55,519.4914,784.6875,499.9414,810.85,504.0789,802.55,519.4914" style="stroke:#A80036;stroke-width:1.25;"/><!--MD5=[f71eee01941c9b1495f6766dd59d6e24]
reverse link ExtensionNode to SwitchNode--><path codeLine="21" d="M593.1875,650.1539 C567.4,669.6789 537.75,692.1289 514.75,709.5414 " fill="none" id="ExtensionNode-backto-SwitchNode" style="stroke:#A80036;stroke-width:1.25;"/><polygon fill="none" points="588.0625,643.0539,613.275,634.9414,598.625,657.0039,588.0625,643.0539" style="stroke:#A80036;stroke-width:1.25;"/><!--MD5=[d68b282230ee0495f6891e8621edbf65]
reverse link ExtensionNode to RepeatNode--><path codeLine="22" d="M651.25,659.9664 C651.25,676.9164 651.25,694.9914 651.25,709.5414 " fill="none" id="ExtensionNode-backto-RepeatNode" style="stroke:#A80036;stroke-width:1.25;"/><polygon fill="none" points="642.5,659.9414,651.25,634.9414,660,659.9414,642.5,659.9414" style="stroke:#A80036;stroke-width:1.25;"/><!--MD5=[90b619f7695dbeda5d048d657dea10f1]
reverse link ExtensionNode to RepeatNodeItem--><path codeLine="23" d="M713.925,649.3289 C742.7,669.1289 776.0375,692.0789 801.725,709.7664 " fill="none" id="ExtensionNode-backto-RepeatNodeItem" style="stroke:#A80036;stroke-width:1.25;"/><polygon fill="none" points="708.65,656.3289,693.025,634.9414,718.575,641.9039,708.65,656.3289" style="stroke:#A80036;stroke-width:1.25;"/><!--MD5=[6fd81e2f00df252ebfc948d05407e103]
reverse link RepeatNode to BaseView--><path codeLine="25" d="M622.0375,791.9539 C611.8,809.7539 600.65,829.1289 591.775,844.5414 " fill="none" id="RepeatNode-backto-BaseView" style="stroke:#A80036;stroke-width:1.25;"/><polygon fill="none" points="614.65,787.2414,634.7,769.9414,629.825,795.9789,614.65,787.2414" style="stroke:#A80036;stroke-width:1.25;"/><!--MD5=[1d7f8405143bd5d06af1f0d4e732d5a7]
reverse link RepeatNode to Repeater--><path codeLine="26" d="M680.4625,791.9539 C690.7,809.7539 701.85,829.1289 710.725,844.5414 " fill="none" id="RepeatNode-backto-Repeater" style="stroke:#A80036;stroke-width:1.25;"/><polygon fill="none" points="672.675,795.9789,667.8,769.9414,687.85,787.2414,672.675,795.9789" style="stroke:#A80036;stroke-width:1.25;"/><!--MD5=[3eec9e702bef3d7b10a4a5b52a60c807]
reverse link BaseView to ArrayView--><path codeLine="28" d="M500.2875,917.0164 C463.1125,937.3289 419.0625,961.3914 385.4375,979.7664 " fill="none" id="BaseView-backto-ArrayView" style="stroke:#A80036;stroke-width:1.25;"/><polygon fill="none" points="496.25,909.2539,522.375,904.9414,504.6375,924.6039,496.25,909.2539" style="stroke:#A80036;stroke-width:1.25;"/><!--MD5=[9dcf967c6948a9644c82a095d8ed25dc]
reverse link BaseView to ObjectView--><path codeLine="29" d="M544.825,926.9539 C534.25,944.7539 522.7375,964.1289 513.575,979.5414 " fill="none" id="BaseView-backto-ObjectView" style="stroke:#A80036;stroke-width:1.25;"/><polygon fill="none" points="537.6125,921.9664,557.9125,904.9414,552.6625,930.9039,537.6125,921.9664" style="stroke:#A80036;stroke-width:1.25;"/><!--MD5=[6df2bf03f40370704c48ad516a3c9089]
reverse link BaseView to MapView--><path codeLine="30" d="M605.2875,926.3539 C616.1375,944.3164 627.9875,963.9539 637.4,979.5414 " fill="none" id="BaseView-backto-MapView" style="stroke:#A80036;stroke-width:1.25;"/><polygon fill="none" points="597.7875,930.8664,592.3625,904.9414,612.775,921.8164,597.7875,930.8664" style="stroke:#A80036;stroke-width:1.25;"/><!--MD5=[958740c01d77a8214f4d5e805cd3b515]
reverse link BaseView to SetView--><path codeLine="31" d="M646.0875,917.5914 C680.75,937.7789 721.5875,961.5664 752.8375,979.7664 " fill="none" id="BaseView-backto-SetView" style="stroke:#A80036;stroke-width:1.25;"/><polygon fill="none" points="641.5625,925.0789,624.3625,904.9414,650.375,909.9664,641.5625,925.0789" style="stroke:#A80036;stroke-width:1.25;"/><!--MD5=[0a731aded812090eb09fcc7f427effae]
@startuml
title Vasille.js core architecture

Destroyable <|- - IValue
Destroyable <|- - - VasilleNode

IValue <|- - Reference
IValue <|- - Pointer
IValue <|- - - Binding
IValue <|- - Expression
Binding <|- - AttributeBinding
Binding <|- - StyleBinding
Binding <|- - ClassBinding

VasilleNode <|- - BaseNode
VasilleNode <|- - TextNode

BaseNode <|- - ExtensionNode
BaseNode <|- - AppNode
BaseNode <|- - TagNode

ExtensionNode <|- - SwitchNode
ExtensionNode <|- - RepeatNode
ExtensionNode <|- - RepeatNodeItem

RepeatNode <|- - BaseView
RepeatNode <|- - Repeater

BaseView <|- - ArrayView
BaseView <|- - ObjectView
BaseView <|- - MapView
BaseView <|- - SetView

@enduml

PlantUML version 1.2020.23(Sun Dec 13 22:14:58 MSK 2020)
(GPL source distribution)
Java Runtime: OpenJDK Runtime Environment
JVM: OpenJDK 64-Bit Server VM
Default Encoding: UTF-8
Language: ru
Country: RU
--></g></svg>