<?xml version="1.0" encoding="UTF-8" standalone="no"?><svg xmlns="http://www.w3.org/2000/svg" xmlns:xlink="http://www.w3.org/1999/xlink" contentScriptType="application/ecmascript" contentStyleType="text/css" height="843px" preserveAspectRatio="none" style="width:935px;height:843px;" version="1.1" viewBox="0 0 935 843" width="935px" zoomAndPan="magnify"><defs><filter height="300%" id="f33vhl7qrb5ml" width="300%" x="-1" y="-1"><feGaussianBlur result="blurOut" stdDeviation="2.0"/><feColorMatrix in="blurOut" result="blurOut2" type="matrix" values="0 0 0 0 0 0 0 0 0 0 0 0 0 0 0 0 0 0 .4 0"/><feOffset dx="4.0" dy="4.0" in="blurOut2" result="blurOut3"/><feBlend in="SourceGraphic" in2="blurOut3" mode="normal"/></filter></defs><g><text fill="#000000" font-family="sans-serif" font-size="18" lengthAdjust="spacingAndGlyphs" textLength="233" x="355" y="16.708">Vasille.js core architecture</text><!--MD5=[dd3d8ac4471df18ad4763acf3eb8d507]
class Destroyable--><rect fill="#FEFECE" filter="url(#f33vhl7qrb5ml)" height="48" id="Destroyable" style="stroke: #A80036; stroke-width: 1.5;" width="107" x="353" y="28.9531"/><ellipse cx="368" cy="44.9531" fill="#ADD1B2" rx="11" ry="11" style="stroke: #A80036; stroke-width: 1.0;"/><path d="M371.5156,48.9844 L371.5156,51.0156 Q370.0313,51.625 368.2031,51.625 Q365.4844,51.625 364.0313,49.8906 Q362.5781,48.1406 362.5781,45.0313 Q362.5781,42.0313 364.1563,40.25 Q365.7344,38.4531 368.4531,38.4531 Q370.3594,38.4531 372.0938,39.375 L371.1406,41.2813 Q369.6406,40.5 368.4531,40.5 Q366.8438,40.5 365.8594,41.7188 Q364.8906,42.9219 364.8906,45.0469 Q364.8906,47.2969 365.7969,48.4375 Q366.7188,49.5781 368.4531,49.5781 Q369.4844,49.5781 371.5156,48.9844 Z "/><text fill="#000000" font-family="sans-serif" font-size="12" lengthAdjust="spacingAndGlyphs" textLength="75" x="382" y="49.1074">Destroyable</text><line style="stroke: #A80036; stroke-width: 1.5;" x1="354" x2="459" y1="60.9531" y2="60.9531"/><line style="stroke: #A80036; stroke-width: 1.5;" x1="354" x2="459" y1="68.9531" y2="68.9531"/><!--MD5=[61a1ff1f2e90e4f5d52417cf735e0e13]
class Core--><rect fill="#FEFECE" filter="url(#f33vhl7qrb5ml)" height="48" id="Core" style="stroke: #A80036; stroke-width: 1.5;" width="61" x="326" y="136.9531"/><ellipse cx="341" cy="152.9531" fill="#ADD1B2" rx="11" ry="11" style="stroke: #A80036; stroke-width: 1.0;"/><path d="M344.5156,156.9844 L344.5156,159.0156 Q343.0313,159.625 341.2031,159.625 Q338.4844,159.625 337.0313,157.8906 Q335.5781,156.1406 335.5781,153.0313 Q335.5781,150.0313 337.1563,148.25 Q338.7344,146.4531 341.4531,146.4531 Q343.3594,146.4531 345.0938,147.375 L344.1406,149.2813 Q342.6406,148.5 341.4531,148.5 Q339.8438,148.5 338.8594,149.7188 Q337.8906,150.9219 337.8906,153.0469 Q337.8906,155.2969 338.7969,156.4375 Q339.7188,157.5781 341.4531,157.5781 Q342.4844,157.5781 344.5156,156.9844 Z "/><text fill="#000000" font-family="sans-serif" font-size="12" lengthAdjust="spacingAndGlyphs" textLength="29" x="355" y="157.1074">Core</text><line style="stroke: #A80036; stroke-width: 1.5;" x1="327" x2="386" y1="168.9531" y2="168.9531"/><line style="stroke: #A80036; stroke-width: 1.5;" x1="327" x2="386" y1="176.9531" y2="176.9531"/><!--MD5=[5ca0a8037b474e226ac56906b1aa41d0]
class IValue--><rect fill="#FEFECE" filter="url(#f33vhl7qrb5ml)" height="48" id="IValue" style="stroke: #A80036; stroke-width: 1.5;" width="70" x="554.5" y="136.9531"/><ellipse cx="569.5" cy="152.9531" fill="#ADD1B2" rx="11" ry="11" style="stroke: #A80036; stroke-width: 1.0;"/><path d="M573.0156,156.9844 L573.0156,159.0156 Q571.5313,159.625 569.7031,159.625 Q566.9844,159.625 565.5313,157.8906 Q564.0781,156.1406 564.0781,153.0313 Q564.0781,150.0313 565.6563,148.25 Q567.2344,146.4531 569.9531,146.4531 Q571.8594,146.4531 573.5938,147.375 L572.6406,149.2813 Q571.1406,148.5 569.9531,148.5 Q568.3438,148.5 567.3594,149.7188 Q566.3906,150.9219 566.3906,153.0469 Q566.3906,155.2969 567.2969,156.4375 Q568.2188,157.5781 569.9531,157.5781 Q570.9844,157.5781 573.0156,156.9844 Z "/><text fill="#000000" font-family="sans-serif" font-size="12" lengthAdjust="spacingAndGlyphs" textLength="38" x="583.5" y="157.1074">IValue</text><line style="stroke: #A80036; stroke-width: 1.5;" x1="555.5" x2="623.5" y1="168.9531" y2="168.9531"/><line style="stroke: #A80036; stroke-width: 1.5;" x1="555.5" x2="623.5" y1="176.9531" y2="176.9531"/><!--MD5=[8bc3de938a7e31712b006f9406671d3e]
class Binding--><rect fill="#FEFECE" filter="url(#f33vhl7qrb5ml)" height="48" id="Binding" style="stroke: #A80036; stroke-width: 1.5;" width="78" x="442.5" y="244.9531"/><ellipse cx="457.5" cy="260.9531" fill="#ADD1B2" rx="11" ry="11" style="stroke: #A80036; stroke-width: 1.0;"/><path d="M461.0156,264.9844 L461.0156,267.0156 Q459.5313,267.625 457.7031,267.625 Q454.9844,267.625 453.5313,265.8906 Q452.0781,264.1406 452.0781,261.0313 Q452.0781,258.0313 453.6563,256.25 Q455.2344,254.4531 457.9531,254.4531 Q459.8594,254.4531 461.5938,255.375 L460.6406,257.2813 Q459.1406,256.5 457.9531,256.5 Q456.3438,256.5 455.3594,257.7188 Q454.3906,258.9219 454.3906,261.0469 Q454.3906,263.2969 455.2969,264.4375 Q456.2188,265.5781 457.9531,265.5781 Q458.9844,265.5781 461.0156,264.9844 Z "/><text fill="#000000" font-family="sans-serif" font-size="12" lengthAdjust="spacingAndGlyphs" textLength="46" x="471.5" y="265.1074">Binding</text><line style="stroke: #A80036; stroke-width: 1.5;" x1="443.5" x2="519.5" y1="276.9531" y2="276.9531"/><line style="stroke: #A80036; stroke-width: 1.5;" x1="443.5" x2="519.5" y1="284.9531" y2="284.9531"/><!--MD5=[ff3d20c1112759d46dde2fcead238479]
class Value--><rect fill="#FEFECE" filter="url(#f33vhl7qrb5ml)" height="48" id="Value" style="stroke: #A80036; stroke-width: 1.5;" width="67" x="556" y="244.9531"/><ellipse cx="571" cy="260.9531" fill="#ADD1B2" rx="11" ry="11" style="stroke: #A80036; stroke-width: 1.0;"/><path d="M574.5156,264.9844 L574.5156,267.0156 Q573.0313,267.625 571.2031,267.625 Q568.4844,267.625 567.0313,265.8906 Q565.5781,264.1406 565.5781,261.0313 Q565.5781,258.0313 567.1563,256.25 Q568.7344,254.4531 571.4531,254.4531 Q573.3594,254.4531 575.0938,255.375 L574.1406,257.2813 Q572.6406,256.5 571.4531,256.5 Q569.8438,256.5 568.8594,257.7188 Q567.8906,258.9219 567.8906,261.0469 Q567.8906,263.2969 568.7969,264.4375 Q569.7188,265.5781 571.4531,265.5781 Q572.4844,265.5781 574.5156,264.9844 Z "/><text fill="#000000" font-family="sans-serif" font-size="12" lengthAdjust="spacingAndGlyphs" textLength="35" x="585" y="265.1074">Value</text><line style="stroke: #A80036; stroke-width: 1.5;" x1="557" x2="622" y1="276.9531" y2="276.9531"/><line style="stroke: #A80036; stroke-width: 1.5;" x1="557" x2="622" y1="284.9531" y2="284.9531"/><!--MD5=[62627c015e89d7bb0cbabf0f19bc53e6]
class Rebind--><rect fill="#FEFECE" filter="url(#f33vhl7qrb5ml)" height="48" id="Rebind" style="stroke: #A80036; stroke-width: 1.5;" width="75" x="658" y="244.9531"/><ellipse cx="673" cy="260.9531" fill="#ADD1B2" rx="11" ry="11" style="stroke: #A80036; stroke-width: 1.0;"/><path d="M676.5156,264.9844 L676.5156,267.0156 Q675.0313,267.625 673.2031,267.625 Q670.4844,267.625 669.0313,265.8906 Q667.5781,264.1406 667.5781,261.0313 Q667.5781,258.0313 669.1563,256.25 Q670.7344,254.4531 673.4531,254.4531 Q675.3594,254.4531 677.0938,255.375 L676.1406,257.2813 Q674.6406,256.5 673.4531,256.5 Q671.8438,256.5 670.8594,257.7188 Q669.8906,258.9219 669.8906,261.0469 Q669.8906,263.2969 670.7969,264.4375 Q671.7188,265.5781 673.4531,265.5781 Q674.4844,265.5781 676.5156,264.9844 Z "/><text fill="#000000" font-family="sans-serif" font-size="12" lengthAdjust="spacingAndGlyphs" textLength="43" x="687" y="265.1074">Rebind</text><line style="stroke: #A80036; stroke-width: 1.5;" x1="659" x2="732" y1="276.9531" y2="276.9531"/><line style="stroke: #A80036; stroke-width: 1.5;" x1="659" x2="732" y1="284.9531" y2="284.9531"/><!--MD5=[9e7d961c2041642d540d23f240543cf9]
class IBind--><rect fill="#FEFECE" filter="url(#f33vhl7qrb5ml)" height="48" id="IBind" style="stroke: #A80036; stroke-width: 1.5;" width="62" x="768.5" y="244.9531"/><ellipse cx="783.5" cy="260.9531" fill="#ADD1B2" rx="11" ry="11" style="stroke: #A80036; stroke-width: 1.0;"/><path d="M787.0156,264.9844 L787.0156,267.0156 Q785.5313,267.625 783.7031,267.625 Q780.9844,267.625 779.5313,265.8906 Q778.0781,264.1406 778.0781,261.0313 Q778.0781,258.0313 779.6563,256.25 Q781.2344,254.4531 783.9531,254.4531 Q785.8594,254.4531 787.5938,255.375 L786.6406,257.2813 Q785.1406,256.5 783.9531,256.5 Q782.3438,256.5 781.3594,257.7188 Q780.3906,258.9219 780.3906,261.0469 Q780.3906,263.2969 781.2969,264.4375 Q782.2188,265.5781 783.9531,265.5781 Q784.9844,265.5781 787.0156,264.9844 Z "/><text fill="#000000" font-family="sans-serif" font-size="12" lengthAdjust="spacingAndGlyphs" textLength="30" x="797.5" y="265.1074">IBind</text><line style="stroke: #A80036; stroke-width: 1.5;" x1="769.5" x2="829.5" y1="276.9531" y2="276.9531"/><line style="stroke: #A80036; stroke-width: 1.5;" x1="769.5" x2="829.5" y1="284.9531" y2="284.9531"/><!--MD5=[a097d1d4e764bf1daa70b09b2cda7289]
class AttributeBinding--><rect fill="#FEFECE" filter="url(#f33vhl7qrb5ml)" height="48" id="AttributeBinding" style="stroke: #A80036; stroke-width: 1.5;" width="133" x="272" y="352.9531"/><ellipse cx="287" cy="368.9531" fill="#ADD1B2" rx="11" ry="11" style="stroke: #A80036; stroke-width: 1.0;"/><path d="M290.5156,372.9844 L290.5156,375.0156 Q289.0313,375.625 287.2031,375.625 Q284.4844,375.625 283.0313,373.8906 Q281.5781,372.1406 281.5781,369.0313 Q281.5781,366.0313 283.1563,364.25 Q284.7344,362.4531 287.4531,362.4531 Q289.3594,362.4531 291.0938,363.375 L290.1406,365.2813 Q288.6406,364.5 287.4531,364.5 Q285.8438,364.5 284.8594,365.7188 Q283.8906,366.9219 283.8906,369.0469 Q283.8906,371.2969 284.7969,372.4375 Q285.7188,373.5781 287.4531,373.5781 Q288.4844,373.5781 290.5156,372.9844 Z "/><text fill="#000000" font-family="sans-serif" font-size="12" lengthAdjust="spacingAndGlyphs" textLength="101" x="301" y="373.1074">AttributeBinding</text><line style="stroke: #A80036; stroke-width: 1.5;" x1="273" x2="404" y1="384.9531" y2="384.9531"/><line style="stroke: #A80036; stroke-width: 1.5;" x1="273" x2="404" y1="392.9531" y2="392.9531"/><!--MD5=[08b00b74ba08ecdb0010710925439892]
class StyleBinding--><rect fill="#FEFECE" filter="url(#f33vhl7qrb5ml)" height="48" id="StyleBinding" style="stroke: #A80036; stroke-width: 1.5;" width="108" x="440.5" y="352.9531"/><ellipse cx="455.5" cy="368.9531" fill="#ADD1B2" rx="11" ry="11" style="stroke: #A80036; stroke-width: 1.0;"/><path d="M459.0156,372.9844 L459.0156,375.0156 Q457.5313,375.625 455.7031,375.625 Q452.9844,375.625 451.5313,373.8906 Q450.0781,372.1406 450.0781,369.0313 Q450.0781,366.0313 451.6563,364.25 Q453.2344,362.4531 455.9531,362.4531 Q457.8594,362.4531 459.5938,363.375 L458.6406,365.2813 Q457.1406,364.5 455.9531,364.5 Q454.3438,364.5 453.3594,365.7188 Q452.3906,366.9219 452.3906,369.0469 Q452.3906,371.2969 453.2969,372.4375 Q454.2188,373.5781 455.9531,373.5781 Q456.9844,373.5781 459.0156,372.9844 Z "/><text fill="#000000" font-family="sans-serif" font-size="12" lengthAdjust="spacingAndGlyphs" textLength="76" x="469.5" y="373.1074">StyleBinding</text><line style="stroke: #A80036; stroke-width: 1.5;" x1="441.5" x2="547.5" y1="384.9531" y2="384.9531"/><line style="stroke: #A80036; stroke-width: 1.5;" x1="441.5" x2="547.5" y1="392.9531" y2="392.9531"/><!--MD5=[7b7984bd3630f9f43f5d615bc6429d87]
class ClassBinding--><rect fill="#FEFECE" filter="url(#f33vhl7qrb5ml)" height="48" id="ClassBinding" style="stroke: #A80036; stroke-width: 1.5;" width="111" x="584" y="352.9531"/><ellipse cx="599" cy="368.9531" fill="#ADD1B2" rx="11" ry="11" style="stroke: #A80036; stroke-width: 1.0;"/><path d="M602.5156,372.9844 L602.5156,375.0156 Q601.0313,375.625 599.2031,375.625 Q596.4844,375.625 595.0313,373.8906 Q593.5781,372.1406 593.5781,369.0313 Q593.5781,366.0313 595.1563,364.25 Q596.7344,362.4531 599.4531,362.4531 Q601.3594,362.4531 603.0938,363.375 L602.1406,365.2813 Q600.6406,364.5 599.4531,364.5 Q597.8438,364.5 596.8594,365.7188 Q595.8906,366.9219 595.8906,369.0469 Q595.8906,371.2969 596.7969,372.4375 Q597.7188,373.5781 599.4531,373.5781 Q600.4844,373.5781 602.5156,372.9844 Z "/><text fill="#000000" font-family="sans-serif" font-size="12" lengthAdjust="spacingAndGlyphs" textLength="79" x="613" y="373.1074">ClassBinding</text><line style="stroke: #A80036; stroke-width: 1.5;" x1="585" x2="694" y1="384.9531" y2="384.9531"/><line style="stroke: #A80036; stroke-width: 1.5;" x1="585" x2="694" y1="392.9531" y2="392.9531"/><!--MD5=[cd9076e7b0444a29e144dc4f3c480e60]
class Bind1--><rect fill="#FEFECE" filter="url(#f33vhl7qrb5ml)" height="48" id="Bind1" style="stroke: #A80036; stroke-width: 1.5;" width="67" x="754" y="352.9531"/><ellipse cx="769" cy="368.9531" fill="#ADD1B2" rx="11" ry="11" style="stroke: #A80036; stroke-width: 1.0;"/><path d="M772.5156,372.9844 L772.5156,375.0156 Q771.0313,375.625 769.2031,375.625 Q766.4844,375.625 765.0313,373.8906 Q763.5781,372.1406 763.5781,369.0313 Q763.5781,366.0313 765.1563,364.25 Q766.7344,362.4531 769.4531,362.4531 Q771.3594,362.4531 773.0938,363.375 L772.1406,365.2813 Q770.6406,364.5 769.4531,364.5 Q767.8438,364.5 766.8594,365.7188 Q765.8906,366.9219 765.8906,369.0469 Q765.8906,371.2969 766.7969,372.4375 Q767.7188,373.5781 769.4531,373.5781 Q770.4844,373.5781 772.5156,372.9844 Z "/><text fill="#000000" font-family="sans-serif" font-size="12" lengthAdjust="spacingAndGlyphs" textLength="35" x="783" y="373.1074">Bind1</text><line style="stroke: #A80036; stroke-width: 1.5;" x1="755" x2="820" y1="384.9531" y2="384.9531"/><line style="stroke: #A80036; stroke-width: 1.5;" x1="755" x2="820" y1="392.9531" y2="392.9531"/><!--MD5=[ade1c6d2f9e7f91b585fd8bbf8d64cce]
class Expression--><rect fill="#FEFECE" filter="url(#f33vhl7qrb5ml)" height="48" id="BindN" style="stroke: #A80036; stroke-width: 1.5;" width="68" x="856.5" y="352.9531"/><ellipse cx="871.5" cy="368.9531" fill="#ADD1B2" rx="11" ry="11" style="stroke: #A80036; stroke-width: 1.0;"/><path d="M875.0156,372.9844 L875.0156,375.0156 Q873.5313,375.625 871.7031,375.625 Q868.9844,375.625 867.5313,373.8906 Q866.0781,372.1406 866.0781,369.0313 Q866.0781,366.0313 867.6563,364.25 Q869.2344,362.4531 871.9531,362.4531 Q873.8594,362.4531 875.5938,363.375 L874.6406,365.2813 Q873.1406,364.5 871.9531,364.5 Q870.3438,364.5 869.3594,365.7188 Q868.3906,366.9219 868.3906,369.0469 Q868.3906,371.2969 869.2969,372.4375 Q870.2188,373.5781 871.9531,373.5781 Q872.9844,373.5781 875.0156,372.9844 Z "/><text fill="#000000" font-family="sans-serif" font-size="12" lengthAdjust="spacingAndGlyphs" textLength="36" x="885.5" y="373.1074">BindN</text><line style="stroke: #A80036; stroke-width: 1.5;" x1="857.5" x2="923.5" y1="384.9531" y2="384.9531"/><line style="stroke: #A80036; stroke-width: 1.5;" x1="857.5" x2="923.5" y1="392.9531" y2="392.9531"/><!--MD5=[6ea948b545d260b2accf0b240a6da873]
class VasilleNode--><rect fill="#FEFECE" filter="url(#f33vhl7qrb5ml)" height="48" id="VasilleNode" style="stroke: #A80036; stroke-width: 1.5;" width="105" x="136" y="244.9531"/><ellipse cx="151" cy="260.9531" fill="#ADD1B2" rx="11" ry="11" style="stroke: #A80036; stroke-width: 1.0;"/><path d="M154.5156,264.9844 L154.5156,267.0156 Q153.0313,267.625 151.2031,267.625 Q148.4844,267.625 147.0313,265.8906 Q145.5781,264.1406 145.5781,261.0313 Q145.5781,258.0313 147.1563,256.25 Q148.7344,254.4531 151.4531,254.4531 Q153.3594,254.4531 155.0938,255.375 L154.1406,257.2813 Q152.6406,256.5 151.4531,256.5 Q149.8438,256.5 148.8594,257.7188 Q147.8906,258.9219 147.8906,261.0469 Q147.8906,263.2969 148.7969,264.4375 Q149.7188,265.5781 151.4531,265.5781 Q152.4844,265.5781 154.5156,264.9844 Z "/><text fill="#000000" font-family="sans-serif" font-size="12" lengthAdjust="spacingAndGlyphs" textLength="73" x="165" y="265.1074">VasilleNode</text><line style="stroke: #A80036; stroke-width: 1.5;" x1="137" x2="240" y1="276.9531" y2="276.9531"/><line style="stroke: #A80036; stroke-width: 1.5;" x1="137" x2="240" y1="284.9531" y2="284.9531"/><!--MD5=[cfb71f71d8b2ca9b80feccc3834cab4f]
class TextNode--><rect fill="#FEFECE" filter="url(#f33vhl7qrb5ml)" height="48" id="TextNode" style="stroke: #A80036; stroke-width: 1.5;" width="91" x="14" y="352.9531"/><ellipse cx="29" cy="368.9531" fill="#ADD1B2" rx="11" ry="11" style="stroke: #A80036; stroke-width: 1.0;"/><path d="M32.5156,372.9844 L32.5156,375.0156 Q31.0313,375.625 29.2031,375.625 Q26.4844,375.625 25.0313,373.8906 Q23.5781,372.1406 23.5781,369.0313 Q23.5781,366.0313 25.1563,364.25 Q26.7344,362.4531 29.4531,362.4531 Q31.3594,362.4531 33.0938,363.375 L32.1406,365.2813 Q30.6406,364.5 29.4531,364.5 Q27.8438,364.5 26.8594,365.7188 Q25.8906,366.9219 25.8906,369.0469 Q25.8906,371.2969 26.7969,372.4375 Q27.7188,373.5781 29.4531,373.5781 Q30.4844,373.5781 32.5156,372.9844 Z "/><text fill="#000000" font-family="sans-serif" font-size="12" lengthAdjust="spacingAndGlyphs" textLength="59" x="43" y="373.1074">TextNode</text><line style="stroke: #A80036; stroke-width: 1.5;" x1="15" x2="104" y1="384.9531" y2="384.9531"/><line style="stroke: #A80036; stroke-width: 1.5;" x1="15" x2="104" y1="392.9531" y2="392.9531"/><!--MD5=[e65fce124287dcb93d674d408f416346]
class BaseNode--><rect fill="#FEFECE" filter="url(#f33vhl7qrb5ml)" height="48" id="BaseNode" style="stroke: #A80036; stroke-width: 1.5;" width="96" x="140.5" y="352.9531"/><ellipse cx="155.5" cy="368.9531" fill="#ADD1B2" rx="11" ry="11" style="stroke: #A80036; stroke-width: 1.0;"/><path d="M159.0156,372.9844 L159.0156,375.0156 Q157.5313,375.625 155.7031,375.625 Q152.9844,375.625 151.5313,373.8906 Q150.0781,372.1406 150.0781,369.0313 Q150.0781,366.0313 151.6563,364.25 Q153.2344,362.4531 155.9531,362.4531 Q157.8594,362.4531 159.5938,363.375 L158.6406,365.2813 Q157.1406,364.5 155.9531,364.5 Q154.3438,364.5 153.3594,365.7188 Q152.3906,366.9219 152.3906,369.0469 Q152.3906,371.2969 153.2969,372.4375 Q154.2188,373.5781 155.9531,373.5781 Q156.9844,373.5781 159.0156,372.9844 Z "/><text fill="#000000" font-family="sans-serif" font-size="12" lengthAdjust="spacingAndGlyphs" textLength="64" x="169.5" y="373.1074">BaseNode</text><line style="stroke: #A80036; stroke-width: 1.5;" x1="141.5" x2="235.5" y1="384.9531" y2="384.9531"/><line style="stroke: #A80036; stroke-width: 1.5;" x1="141.5" x2="235.5" y1="392.9531" y2="392.9531"/><!--MD5=[fbdaf7ea60489f2d3b7e38c34e4aa506]
class AppNode--><rect fill="#FEFECE" filter="url(#f33vhl7qrb5ml)" height="48" id="AppNode" style="stroke: #A80036; stroke-width: 1.5;" width="89" x="6" y="460.9531"/><ellipse cx="21" cy="476.9531" fill="#ADD1B2" rx="11" ry="11" style="stroke: #A80036; stroke-width: 1.0;"/><path d="M24.5156,480.9844 L24.5156,483.0156 Q23.0313,483.625 21.2031,483.625 Q18.4844,483.625 17.0313,481.8906 Q15.5781,480.1406 15.5781,477.0313 Q15.5781,474.0313 17.1563,472.25 Q18.7344,470.4531 21.4531,470.4531 Q23.3594,470.4531 25.0938,471.375 L24.1406,473.2813 Q22.6406,472.5 21.4531,472.5 Q19.8438,472.5 18.8594,473.7188 Q17.8906,474.9219 17.8906,477.0469 Q17.8906,479.2969 18.7969,480.4375 Q19.7188,481.5781 21.4531,481.5781 Q22.4844,481.5781 24.5156,480.9844 Z "/><text fill="#000000" font-family="sans-serif" font-size="12" lengthAdjust="spacingAndGlyphs" textLength="57" x="35" y="481.1074">AppNode</text><line style="stroke: #A80036; stroke-width: 1.5;" x1="7" x2="94" y1="492.9531" y2="492.9531"/><line style="stroke: #A80036; stroke-width: 1.5;" x1="7" x2="94" y1="500.9531" y2="500.9531"/><!--MD5=[7555f930ca547e55c01f8546543ac332]
class TagNode--><rect fill="#FEFECE" filter="url(#f33vhl7qrb5ml)" height="48" id="ElementNode" style="stroke: #A80036; stroke-width: 1.5;" width="116" x="130.5" y="460.9531"/><ellipse cx="145.5" cy="476.9531" fill="#ADD1B2" rx="11" ry="11" style="stroke: #A80036; stroke-width: 1.0;"/><path d="M149.0156,480.9844 L149.0156,483.0156 Q147.5313,483.625 145.7031,483.625 Q142.9844,483.625 141.5313,481.8906 Q140.0781,480.1406 140.0781,477.0313 Q140.0781,474.0313 141.6563,472.25 Q143.2344,470.4531 145.9531,470.4531 Q147.8594,470.4531 149.5938,471.375 L148.6406,473.2813 Q147.1406,472.5 145.9531,472.5 Q144.3438,472.5 143.3594,473.7188 Q142.3906,474.9219 142.3906,477.0469 Q142.3906,479.2969 143.2969,480.4375 Q144.2188,481.5781 145.9531,481.5781 Q146.9844,481.5781 149.0156,480.9844 Z "/><text fill="#000000" font-family="sans-serif" font-size="12" lengthAdjust="spacingAndGlyphs" textLength="84" x="159.5" y="481.1074">ElementNode</text><line style="stroke: #A80036; stroke-width: 1.5;" x1="131.5" x2="245.5" y1="492.9531" y2="492.9531"/><line style="stroke: #A80036; stroke-width: 1.5;" x1="131.5" x2="245.5" y1="500.9531" y2="500.9531"/><!--MD5=[48252973b14b08df02da47502e0b04eb]
class ExtensionNode--><rect fill="#FEFECE" filter="url(#f33vhl7qrb5ml)" height="48" id="ShadowNode" style="stroke: #A80036; stroke-width: 1.5;" width="114" x="281.5" y="460.9531"/><ellipse cx="296.5" cy="476.9531" fill="#ADD1B2" rx="11" ry="11" style="stroke: #A80036; stroke-width: 1.0;"/><path d="M300.0156,480.9844 L300.0156,483.0156 Q298.5313,483.625 296.7031,483.625 Q293.9844,483.625 292.5313,481.8906 Q291.0781,480.1406 291.0781,477.0313 Q291.0781,474.0313 292.6563,472.25 Q294.2344,470.4531 296.9531,470.4531 Q298.8594,470.4531 300.5938,471.375 L299.6406,473.2813 Q298.1406,472.5 296.9531,472.5 Q295.3438,472.5 294.3594,473.7188 Q293.3906,474.9219 293.3906,477.0469 Q293.3906,479.2969 294.2969,480.4375 Q295.2188,481.5781 296.9531,481.5781 Q297.9844,481.5781 300.0156,480.9844 Z "/><text fill="#000000" font-family="sans-serif" font-size="12" lengthAdjust="spacingAndGlyphs" textLength="82" x="310.5" y="481.1074">ShadowNode</text><line style="stroke: #A80036; stroke-width: 1.5;" x1="282.5" x2="394.5" y1="492.9531" y2="492.9531"/><line style="stroke: #A80036; stroke-width: 1.5;" x1="282.5" x2="394.5" y1="500.9531" y2="500.9531"/><!--MD5=[7a6f96650cf8b98d9d897dc87305dab7]
class SwitchNode--><rect fill="#FEFECE" filter="url(#f33vhl7qrb5ml)" height="48" id="SwitchNode" style="stroke: #A80036; stroke-width: 1.5;" width="105" x="139" y="568.9531"/><ellipse cx="154" cy="584.9531" fill="#ADD1B2" rx="11" ry="11" style="stroke: #A80036; stroke-width: 1.0;"/><path d="M157.5156,588.9844 L157.5156,591.0156 Q156.0313,591.625 154.2031,591.625 Q151.4844,591.625 150.0313,589.8906 Q148.5781,588.1406 148.5781,585.0313 Q148.5781,582.0313 150.1563,580.25 Q151.7344,578.4531 154.4531,578.4531 Q156.3594,578.4531 158.0938,579.375 L157.1406,581.2813 Q155.6406,580.5 154.4531,580.5 Q152.8438,580.5 151.8594,581.7188 Q150.8906,582.9219 150.8906,585.0469 Q150.8906,587.2969 151.7969,588.4375 Q152.7188,589.5781 154.4531,589.5781 Q155.4844,589.5781 157.5156,588.9844 Z "/><text fill="#000000" font-family="sans-serif" font-size="12" lengthAdjust="spacingAndGlyphs" textLength="73" x="168" y="589.1074">SwitchNode</text><line style="stroke: #A80036; stroke-width: 1.5;" x1="140" x2="243" y1="600.9531" y2="600.9531"/><line style="stroke: #A80036; stroke-width: 1.5;" x1="140" x2="243" y1="608.9531" y2="608.9531"/><!--MD5=[cd426a586d3ab7c3c97dd206d1559cff]
class RepeateNode--><rect fill="#FEFECE" filter="url(#f33vhl7qrb5ml)" height="48" id="RepeateNode" style="stroke: #A80036; stroke-width: 1.5;" width="118" x="279.5" y="568.9531"/><ellipse cx="294.5" cy="584.9531" fill="#ADD1B2" rx="11" ry="11" style="stroke: #A80036; stroke-width: 1.0;"/><path d="M298.0156,588.9844 L298.0156,591.0156 Q296.5313,591.625 294.7031,591.625 Q291.9844,591.625 290.5313,589.8906 Q289.0781,588.1406 289.0781,585.0313 Q289.0781,582.0313 290.6563,580.25 Q292.2344,578.4531 294.9531,578.4531 Q296.8594,578.4531 298.5938,579.375 L297.6406,581.2813 Q296.1406,580.5 294.9531,580.5 Q293.3438,580.5 292.3594,581.7188 Q291.3906,582.9219 291.3906,585.0469 Q291.3906,587.2969 292.2969,588.4375 Q293.2188,589.5781 294.9531,589.5781 Q295.9844,589.5781 298.0156,588.9844 Z "/><text fill="#000000" font-family="sans-serif" font-size="12" lengthAdjust="spacingAndGlyphs" textLength="86" x="308.5" y="589.1074">RepeateNode</text><line style="stroke: #A80036; stroke-width: 1.5;" x1="280.5" x2="396.5" y1="600.9531" y2="600.9531"/><line style="stroke: #A80036; stroke-width: 1.5;" x1="280.5" x2="396.5" y1="608.9531" y2="608.9531"/><!--MD5=[13d0670c7837f3c60559d63cd0c2aa92]
class RepeateNodeItem--><rect fill="#FEFECE" filter="url(#f33vhl7qrb5ml)" height="48" id="RepeateNodeItem" style="stroke: #A80036; stroke-width: 1.5;" width="145" x="433" y="568.9531"/><ellipse cx="448" cy="584.9531" fill="#ADD1B2" rx="11" ry="11" style="stroke: #A80036; stroke-width: 1.0;"/><path d="M451.5156,588.9844 L451.5156,591.0156 Q450.0313,591.625 448.2031,591.625 Q445.4844,591.625 444.0313,589.8906 Q442.5781,588.1406 442.5781,585.0313 Q442.5781,582.0313 444.1563,580.25 Q445.7344,578.4531 448.4531,578.4531 Q450.3594,578.4531 452.0938,579.375 L451.1406,581.2813 Q449.6406,580.5 448.4531,580.5 Q446.8438,580.5 445.8594,581.7188 Q444.8906,582.9219 444.8906,585.0469 Q444.8906,587.2969 445.7969,588.4375 Q446.7188,589.5781 448.4531,589.5781 Q449.4844,589.5781 451.5156,588.9844 Z "/><text fill="#000000" font-family="sans-serif" font-size="12" lengthAdjust="spacingAndGlyphs" textLength="113" x="462" y="589.1074">RepeateNodeItem</text><line style="stroke: #A80036; stroke-width: 1.5;" x1="434" x2="577" y1="600.9531" y2="600.9531"/><line style="stroke: #A80036; stroke-width: 1.5;" x1="434" x2="577" y1="608.9531" y2="608.9531"/><!--MD5=[5ec8c00c13391aeaac8c08bdf7a77295]
class Repeater--><rect fill="#FEFECE" filter="url(#f33vhl7qrb5ml)" height="48" id="Repeater" style="stroke: #A80036; stroke-width: 1.5;" width="90" x="230.5" y="676.9531"/><ellipse cx="245.5" cy="692.9531" fill="#ADD1B2" rx="11" ry="11" style="stroke: #A80036; stroke-width: 1.0;"/><path d="M249.0156,696.9844 L249.0156,699.0156 Q247.5313,699.625 245.7031,699.625 Q242.9844,699.625 241.5313,697.8906 Q240.0781,696.1406 240.0781,693.0313 Q240.0781,690.0313 241.6563,688.25 Q243.2344,686.4531 245.9531,686.4531 Q247.8594,686.4531 249.5938,687.375 L248.6406,689.2813 Q247.1406,688.5 245.9531,688.5 Q244.3438,688.5 243.3594,689.7188 Q242.3906,690.9219 242.3906,693.0469 Q242.3906,695.2969 243.2969,696.4375 Q244.2188,697.5781 245.9531,697.5781 Q246.9844,697.5781 249.0156,696.9844 Z "/><text fill="#000000" font-family="sans-serif" font-size="12" lengthAdjust="spacingAndGlyphs" textLength="58" x="259.5" y="697.1074">Repeater</text><line style="stroke: #A80036; stroke-width: 1.5;" x1="231.5" x2="319.5" y1="708.9531" y2="708.9531"/><line style="stroke: #A80036; stroke-width: 1.5;" x1="231.5" x2="319.5" y1="716.9531" y2="716.9531"/><!--MD5=[7f71caf2f03bc97de09c89514fe9107d]
class BaseView--><rect fill="#FEFECE" filter="url(#f33vhl7qrb5ml)" height="48" id="BaseView" style="stroke: #A80036; stroke-width: 1.5;" width="91" x="356" y="676.9531"/><ellipse cx="371" cy="692.9531" fill="#ADD1B2" rx="11" ry="11" style="stroke: #A80036; stroke-width: 1.0;"/><path d="M374.5156,696.9844 L374.5156,699.0156 Q373.0313,699.625 371.2031,699.625 Q368.4844,699.625 367.0313,697.8906 Q365.5781,696.1406 365.5781,693.0313 Q365.5781,690.0313 367.1563,688.25 Q368.7344,686.4531 371.4531,686.4531 Q373.3594,686.4531 375.0938,687.375 L374.1406,689.2813 Q372.6406,688.5 371.4531,688.5 Q369.8438,688.5 368.8594,689.7188 Q367.8906,690.9219 367.8906,693.0469 Q367.8906,695.2969 368.7969,696.4375 Q369.7188,697.5781 371.4531,697.5781 Q372.4844,697.5781 374.5156,696.9844 Z "/><text fill="#000000" font-family="sans-serif" font-size="12" lengthAdjust="spacingAndGlyphs" textLength="59" x="385" y="697.1074">BaseView</text><line style="stroke: #A80036; stroke-width: 1.5;" x1="357" x2="446" y1="708.9531" y2="708.9531"/><line style="stroke: #A80036; stroke-width: 1.5;" x1="357" x2="446" y1="716.9531" y2="716.9531"/><!--MD5=[704c572d6ddfff3f8ae9d9249edfa29e]
class ArrayView--><rect fill="#FEFECE" filter="url(#f33vhl7qrb5ml)" height="48" id="ArrayView" style="stroke: #A80036; stroke-width: 1.5;" width="92" x="160.5" y="784.9531"/><ellipse cx="175.5" cy="800.9531" fill="#ADD1B2" rx="11" ry="11" style="stroke: #A80036; stroke-width: 1.0;"/><path d="M179.0156,804.9844 L179.0156,807.0156 Q177.5313,807.625 175.7031,807.625 Q172.9844,807.625 171.5313,805.8906 Q170.0781,804.1406 170.0781,801.0313 Q170.0781,798.0313 171.6563,796.25 Q173.2344,794.4531 175.9531,794.4531 Q177.8594,794.4531 179.5938,795.375 L178.6406,797.2813 Q177.1406,796.5 175.9531,796.5 Q174.3438,796.5 173.3594,797.7188 Q172.3906,798.9219 172.3906,801.0469 Q172.3906,803.2969 173.2969,804.4375 Q174.2188,805.5781 175.9531,805.5781 Q176.9844,805.5781 179.0156,804.9844 Z "/><text fill="#000000" font-family="sans-serif" font-size="12" lengthAdjust="spacingAndGlyphs" textLength="60" x="189.5" y="805.1074">ArrayView</text><line style="stroke: #A80036; stroke-width: 1.5;" x1="161.5" x2="251.5" y1="816.9531" y2="816.9531"/><line style="stroke: #A80036; stroke-width: 1.5;" x1="161.5" x2="251.5" y1="824.9531" y2="824.9531"/><!--MD5=[34aa44afce17f5bd91ed70547120b567]
class ObjectView--><rect fill="#FEFECE" filter="url(#f33vhl7qrb5ml)" height="48" id="ObjectView" style="stroke: #A80036; stroke-width: 1.5;" width="100" x="287.5" y="784.9531"/><ellipse cx="302.5" cy="800.9531" fill="#ADD1B2" rx="11" ry="11" style="stroke: #A80036; stroke-width: 1.0;"/><path d="M306.0156,804.9844 L306.0156,807.0156 Q304.5313,807.625 302.7031,807.625 Q299.9844,807.625 298.5313,805.8906 Q297.0781,804.1406 297.0781,801.0313 Q297.0781,798.0313 298.6563,796.25 Q300.2344,794.4531 302.9531,794.4531 Q304.8594,794.4531 306.5938,795.375 L305.6406,797.2813 Q304.1406,796.5 302.9531,796.5 Q301.3438,796.5 300.3594,797.7188 Q299.3906,798.9219 299.3906,801.0469 Q299.3906,803.2969 300.2969,804.4375 Q301.2188,805.5781 302.9531,805.5781 Q303.9844,805.5781 306.0156,804.9844 Z "/><text fill="#000000" font-family="sans-serif" font-size="12" lengthAdjust="spacingAndGlyphs" textLength="68" x="316.5" y="805.1074">ObjectView</text><line style="stroke: #A80036; stroke-width: 1.5;" x1="288.5" x2="386.5" y1="816.9531" y2="816.9531"/><line style="stroke: #A80036; stroke-width: 1.5;" x1="288.5" x2="386.5" y1="824.9531" y2="824.9531"/><!--MD5=[55f0b2683249973f2f639c338784ad20]
class MapView--><rect fill="#FEFECE" filter="url(#f33vhl7qrb5ml)" height="48" id="MapView" style="stroke: #A80036; stroke-width: 1.5;" width="86" x="422.5" y="784.9531"/><ellipse cx="437.5" cy="800.9531" fill="#ADD1B2" rx="11" ry="11" style="stroke: #A80036; stroke-width: 1.0;"/><path d="M441.0156,804.9844 L441.0156,807.0156 Q439.5313,807.625 437.7031,807.625 Q434.9844,807.625 433.5313,805.8906 Q432.0781,804.1406 432.0781,801.0313 Q432.0781,798.0313 433.6563,796.25 Q435.2344,794.4531 437.9531,794.4531 Q439.8594,794.4531 441.5938,795.375 L440.6406,797.2813 Q439.1406,796.5 437.9531,796.5 Q436.3438,796.5 435.3594,797.7188 Q434.3906,798.9219 434.3906,801.0469 Q434.3906,803.2969 435.2969,804.4375 Q436.2188,805.5781 437.9531,805.5781 Q438.9844,805.5781 441.0156,804.9844 Z "/><text fill="#000000" font-family="sans-serif" font-size="12" lengthAdjust="spacingAndGlyphs" textLength="54" x="451.5" y="805.1074">MapView</text><line style="stroke: #A80036; stroke-width: 1.5;" x1="423.5" x2="507.5" y1="816.9531" y2="816.9531"/><line style="stroke: #A80036; stroke-width: 1.5;" x1="423.5" x2="507.5" y1="824.9531" y2="824.9531"/><!--MD5=[38fd6180ca6eef27836d88a67eb15ffe]
class SetView--><rect fill="#FEFECE" filter="url(#f33vhl7qrb5ml)" height="48" id="SetView" style="stroke: #A80036; stroke-width: 1.5;" width="81" x="544" y="784.9531"/><ellipse cx="559" cy="800.9531" fill="#ADD1B2" rx="11" ry="11" style="stroke: #A80036; stroke-width: 1.0;"/><path d="M562.5156,804.9844 L562.5156,807.0156 Q561.0313,807.625 559.2031,807.625 Q556.4844,807.625 555.0313,805.8906 Q553.5781,804.1406 553.5781,801.0313 Q553.5781,798.0313 555.1563,796.25 Q556.7344,794.4531 559.4531,794.4531 Q561.3594,794.4531 563.0938,795.375 L562.1406,797.2813 Q560.6406,796.5 559.4531,796.5 Q557.8438,796.5 556.8594,797.7188 Q555.8906,798.9219 555.8906,801.0469 Q555.8906,803.2969 556.7969,804.4375 Q557.7188,805.5781 559.4531,805.5781 Q560.4844,805.5781 562.5156,804.9844 Z "/><text fill="#000000" font-family="sans-serif" font-size="12" lengthAdjust="spacingAndGlyphs" textLength="49" x="573" y="805.1074">SetView</text><line style="stroke: #A80036; stroke-width: 1.5;" x1="545" x2="624" y1="816.9531" y2="816.9531"/><line style="stroke: #A80036; stroke-width: 1.5;" x1="545" x2="624" y1="824.9531" y2="824.9531"/><!--MD5=[86584caa31f6ebcbc02727cd4e90579b]
reverse link Destroyable to Core--><path d="M387.12,95.0431 C380.46,109.1531 373.25,124.4331 367.5,136.6331 " fill="none" id="Destroyable&lt;-Core" style="stroke: #A80036; stroke-width: 1.0;"/><polygon fill="none" points="380.79,92.0531,395.65,76.9531,393.45,98.0331,380.79,92.0531" style="stroke: #A80036; stroke-width: 1.0;"/><!--MD5=[296910cd91cf7a3feea6ca161b5b4f99]
reverse link Destroyable to IValue--><path d="M463.79,87.1331 C493.4,104.2831 528.59,124.6731 554.2,139.5031 " fill="none" id="Destroyable&lt;-IValue" style="stroke: #A80036; stroke-width: 1.0;"/><polygon fill="none" points="460.01,93.0331,446.21,76.9531,467.02,80.9231,460.01,93.0331" style="stroke: #A80036; stroke-width: 1.0;"/><!--MD5=[3ebe14c4b2ef1a816eeb26c243b8484b]
reverse link IValue to Binding--><path d="M551.52,199.2331 C536.12,214.3431 518.82,231.3331 505.26,244.6331 " fill="none" id="IValue&lt;-Binding" style="stroke: #A80036; stroke-width: 1.0;"/><polygon fill="none" points="546.89,193.9631,566.07,184.9531,556.7,203.9631,546.89,193.9631" style="stroke: #A80036; stroke-width: 1.0;"/><!--MD5=[c58b96d2efbcf1d6c65ab07a64bf54af]
reverse link IValue to Value--><path d="M589.5,204.9731 C589.5,218.5331 589.5,232.9931 589.5,244.6331 " fill="none" id="IValue&lt;-Value" style="stroke: #A80036; stroke-width: 1.0;"/><polygon fill="none" points="582.5,204.9531,589.5,184.9531,596.5,204.9531,582.5,204.9531" style="stroke: #A80036; stroke-width: 1.0;"/><!--MD5=[39d2057060afac3e70012eff5a55db82]
reverse link IValue to Rebind--><path d="M626.78,199.2331 C641.89,214.3431 658.88,231.3331 672.18,244.6331 " fill="none" id="IValue&lt;-Rebind" style="stroke: #A80036; stroke-width: 1.0;"/><polygon fill="none" points="621.69,204.0431,612.5,184.9531,631.59,194.1431,621.69,204.0431" style="stroke: #A80036; stroke-width: 1.0;"/><!--MD5=[bd177a275ae1afc67b18456081d40468]
reverse link IValue to IBind--><path d="M642.66,188.7831 C682.36,208.8231 735.27,235.5331 768.35,252.2331 " fill="none" id="IValue&lt;-IBind" style="stroke: #A80036; stroke-width: 1.0;"/><polygon fill="none" points="639.35,194.9531,624.65,179.6931,645.66,182.4631,639.35,194.9531" style="stroke: #A80036; stroke-width: 1.0;"/><!--MD5=[c1cc80dd68f24939a5d315883ab9d1d7]
reverse link Binding to AttributeBinding--><path d="M434.37,304.8931 C413.22,320.5631 388.84,338.6331 369.96,352.6331 " fill="none" id="Binding&lt;-AttributeBinding" style="stroke: #A80036; stroke-width: 1.0;"/><polygon fill="none" points="430.24,299.2431,450.47,292.9531,438.57,310.4831,430.24,299.2431" style="stroke: #A80036; stroke-width: 1.0;"/><!--MD5=[5fd0d572bcc6c1beb85a8e798ed53fc8]
reverse link Binding to StyleBinding--><path d="M486.78,312.9731 C488.44,326.5331 490.21,340.9931 491.64,352.6331 " fill="none" id="Binding&lt;-StyleBinding" style="stroke: #A80036; stroke-width: 1.0;"/><polygon fill="none" points="479.81,313.6531,484.32,292.9531,493.7,311.9531,479.81,313.6531" style="stroke: #A80036; stroke-width: 1.0;"/><!--MD5=[49d8d5f064558c0f9858c7caf8ad01ad]
reverse link Binding to ClassBinding--><path d="M532.6,304.2331 C556.29,320.1231 583.82,338.6031 605.01,352.8131 " fill="none" id="Binding&lt;-ClassBinding" style="stroke: #A80036; stroke-width: 1.0;"/><polygon fill="none" points="528.49,309.9131,515.78,292.9531,536.29,298.2831,528.49,309.9131" style="stroke: #A80036; stroke-width: 1.0;"/><!--MD5=[e69551a4b0c2704fe7878b3f3951e7ff]
reverse link IBind to Bind1--><path d="M794.63,312.9731 C793.09,326.5331 791.46,340.9931 790.14,352.6331 " fill="none" id="IBind&lt;-Bind1" style="stroke: #A80036; stroke-width: 1.0;"/><polygon fill="none" points="787.69,312.0431,796.9,292.9531,801.6,313.6131,787.69,312.0431" style="stroke: #A80036; stroke-width: 1.0;"/><!--MD5=[70baea888b81621c6e27b66e4f75f62a]
reverse link IBind to Expression--><path d="M832.32,308.1831 C845.08,323.0531 859.3,339.6031 870.48,352.6331 " fill="none" id="IBind&lt;-BindN" style="stroke: #A80036; stroke-width: 1.0;"/><polygon fill="none" points="826.96,312.6931,819.25,292.9531,837.58,303.5731,826.96,312.6931" style="stroke: #A80036; stroke-width: 1.0;"/><!--MD5=[52acda2bcda21202c387ea06b5c37fa3]
reverse link Core to VasilleNode--><path d="M308.42,192.2931 C281.86,209.0431 249.41,229.5231 224.97,244.9431 " fill="none" id="Core&lt;-VasilleNode" style="stroke: #A80036; stroke-width: 1.0;"/><polygon fill="none" points="305.04,186.1431,325.69,181.3931,312.51,197.9831,305.04,186.1431" style="stroke: #A80036; stroke-width: 1.0;"/><!--MD5=[8c41d82b08653b3c6e74ba8ece592115]
reverse link VasilleNode to TextNode--><path d="M144.85,305.8231 C126.04,321.2831 104.58,338.9131 87.88,352.6331 " fill="none" id="VasilleNode&lt;-TextNode" style="stroke: #A80036; stroke-width: 1.0;"/><polygon fill="none" points="140.61,300.2431,160.51,292.9531,149.5,311.0631,140.61,300.2431" style="stroke: #A80036; stroke-width: 1.0;"/><!--MD5=[5589e737b1bba3d96fa75b63200c2482]
reverse link VasilleNode to BaseNode--><path d="M188.5,312.9731 C188.5,326.5331 188.5,340.9931 188.5,352.6331 " fill="none" id="VasilleNode&lt;-BaseNode" style="stroke: #A80036; stroke-width: 1.0;"/><polygon fill="none" points="181.5,312.9531,188.5,292.9531,195.5,312.9531,181.5,312.9531" style="stroke: #A80036; stroke-width: 1.0;"/><!--MD5=[de1d6830d5084afaa9c019fe10a8d8a4]
reverse link BaseNode to AppNode--><path d="M142.41,413.3531 C122.14,428.9231 98.9,446.7731 80.86,460.6331 " fill="none" id="BaseNode&lt;-AppNode" style="stroke: #A80036; stroke-width: 1.0;"/><polygon fill="none" points="138.43,407.5831,158.56,400.9531,146.96,418.6831,138.43,407.5831" style="stroke: #A80036; stroke-width: 1.0;"/><!--MD5=[69f0cdd217183f1cf235bcb254927462]
reverse link BaseNode to TagNode--><path d="M188.5,420.9731 C188.5,434.5331 188.5,448.9931 188.5,460.6331 " fill="none" id="BaseNode&lt;-ElementNode" style="stroke: #A80036; stroke-width: 1.0;"/><polygon fill="none" points="181.5,420.9531,188.5,400.9531,195.5,420.9531,181.5,420.9531" style="stroke: #A80036; stroke-width: 1.0;"/><!--MD5=[e08a0ccc7091f641d294677152dafe74]
reverse link BaseNode to ExtensionNode--><path d="M237.67,412.7031 C260.01,428.4831 285.84,446.7331 305.76,460.8131 " fill="none" id="BaseNode&lt;-ShadowNode" style="stroke: #A80036; stroke-width: 1.0;"/><polygon fill="none" points="233.34,418.2131,221.05,400.9531,241.42,406.7831,233.34,418.2131" style="stroke: #A80036; stroke-width: 1.0;"/><!--MD5=[2dc506a1e595ba65dc6abfde886773cd]
reverse link ExtensionNode to SwitchNode--><path d="M290.32,520.7031 C268.42,536.4831 243.11,554.7331 223.59,568.8131 " fill="none" id="ShadowNode&lt;-SwitchNode" style="stroke: #A80036; stroke-width: 1.0;"/><polygon fill="none" points="286.29,514.9731,306.6,508.9531,294.48,526.3331,286.29,514.9731" style="stroke: #A80036; stroke-width: 1.0;"/><!--MD5=[423adc54ed687da65d1e2563c8e02551]
reverse link ExtensionNode to RepeateNode--><path d="M338.5,528.9731 C338.5,542.5331 338.5,556.9931 338.5,568.6331 " fill="none" id="ShadowNode&lt;-RepeateNode" style="stroke: #A80036; stroke-width: 1.0;"/><polygon fill="none" points="331.5,528.9531,338.5,508.9531,345.5,528.9531,331.5,528.9531" style="stroke: #A80036; stroke-width: 1.0;"/><!--MD5=[56c372030e5e32a198d25f0eb88c8c4e]
reverse link ExtensionNode to RepeateNodeItem--><path d="M391.77,519.7631 C416.98,535.7631 446.43,554.4631 469.05,568.8131 " fill="none" id="ShadowNode&lt;-RepeateNodeItem" style="stroke: #A80036; stroke-width: 1.0;"/><polygon fill="none" points="387.87,525.5831,374.74,508.9531,395.37,513.7631,387.87,525.5831" style="stroke: #A80036; stroke-width: 1.0;"/><!--MD5=[0b59aa3a8f9ff96016e2a18a17187669]
reverse link RepeateNode to Repeater--><path d="M314.36,634.5631 C305.9,648.8031 296.69,664.3031 289.36,676.6331 " fill="none" id="RepeateNode&lt;-Repeater" style="stroke: #A80036; stroke-width: 1.0;"/><polygon fill="none" points="308.59,630.5731,324.83,616.9531,320.63,637.7231,308.59,630.5731" style="stroke: #A80036; stroke-width: 1.0;"/><!--MD5=[972b1130fbb9783184f7c14dd6af34e7]
reverse link RepeateNode to BaseView--><path d="M362.64,634.5631 C371.1,648.8031 380.31,664.3031 387.64,676.6331 " fill="none" id="RepeateNode&lt;-BaseView" style="stroke: #A80036; stroke-width: 1.0;"/><polygon fill="none" points="356.37,637.7231,352.17,616.9531,368.41,630.5731,356.37,637.7231" style="stroke: #A80036; stroke-width: 1.0;"/><!--MD5=[3eec9e702bef3d7b10a4a5b52a60c807]
reverse link BaseView to ArrayView--><path d="M341.42,734.6131 C311.53,750.8631 276.11,770.1131 249.07,784.8131 " fill="none" id="BaseView&lt;-ArrayView" style="stroke: #A80036; stroke-width: 1.0;"/><polygon fill="none" points="338.27,728.3531,359.19,724.9531,344.96,740.6531,338.27,728.3531" style="stroke: #A80036; stroke-width: 1.0;"/><!--MD5=[9dcf967c6948a9644c82a095d8ed25dc]
reverse link BaseView to ObjectView--><path d="M377.27,742.0831 C368.59,756.4531 359.11,772.1631 351.58,784.6331 " fill="none" id="BaseView&lt;-ObjectView" style="stroke: #A80036; stroke-width: 1.0;"/><polygon fill="none" points="371.28,738.4531,387.61,724.9531,383.27,745.6931,371.28,738.4531" style="stroke: #A80036; stroke-width: 1.0;"/><!--MD5=[6df2bf03f40370704c48ad516a3c9089]
reverse link BaseView to MapView--><path d="M425.73,742.0831 C434.41,756.4531 443.89,772.1631 451.42,784.6331 " fill="none" id="BaseView&lt;-MapView" style="stroke: #A80036; stroke-width: 1.0;"/><polygon fill="none" points="419.73,745.6931,415.39,724.9531,431.72,738.4531,419.73,745.6931" style="stroke: #A80036; stroke-width: 1.0;"/><!--MD5=[958740c01d77a8214f4d5e805cd3b515]
reverse link BaseView to SetView--><path d="M458.68,735.0731 C486.56,751.2231 519.41,770.2531 544.55,784.8131 " fill="none" id="BaseView&lt;-SetView" style="stroke: #A80036; stroke-width: 1.0;"/><polygon fill="none" points="455.01,741.0331,441.21,724.9531,462.02,728.9231,455.01,741.0331" style="stroke: #A80036; stroke-width: 1.0;"/><!--MD5=[e07ed5849a076d121f0fe2cf085c14f7]
@startuml
title Vasille.js core architecture

Destroyable <|- - Core
Destroyable <|- - IValue

IValue <|- - Binding
IValue <|- - Value
IValue <|- - Rebind
IValue <|- - IBind
Binding <|- - AttributeBinding
Binding <|- - StyleBinding
Binding <|- - ClassBinding
IBind <|- - Bind1
IBind <|- - Expression

Core <|- - VasilleNode
VasilleNode <|- - TextNode
VasilleNode <|- - BaseNode

BaseNode <|- - AppNode
BaseNode <|- - TagNode
BaseNode <|- - ExtensionNode

ExtensionNode <|- - SwitchNode
ExtensionNode <|- - RepeateNode
ExtensionNode <|- - RepeateNodeItem

RepeateNode <|- - Repeater
RepeateNode <|- - BaseView

BaseView <|- - ArrayView
BaseView <|- - ObjectView
BaseView <|- - MapView
BaseView <|- - SetView

@enduml

PlantUML version 1.2020.10(Sun May 17 12:35:57 MSK 2020)
(GPL source distribution)
Java Runtime: OpenJDK Runtime Environment
JVM: OpenJDK 64-Bit Server VM
Java Version: 1.8.0_265-b01
Operating System: Linux
Default Encoding: UTF-8
Language: ru
Country: RU
--></g></svg>
